<svg xmlns="http://www.w3.org/2000/svg" xmlns:xlink="http://www.w3.org/1999/xlink" style="isolation:isolate" viewBox="0 0 25 25" width="25" height="25"><defs><clipPath id="_clipPath_1ZVRiTbmCGVnnfBFb49OZ6jm7bak01gG"><rect width="25" height="25"/></clipPath></defs><g clip-path="url(#_clipPath_1ZVRiTbmCGVnnfBFb49OZ6jm7bak01gG)"><linearGradient id="_lgradient_4" x1="50.024233187493294%" y1="-2.272479428658197%" x2="48.90950656280374%" y2="102.26157428961946%"><stop offset="2.1739130434782594%" stop-opacity="1" style="stop-color:rgb(214,95,82)"/><stop offset="97.82608695652173%" stop-opacity="1" style="stop-color:rgb(156,70,61)"/></linearGradient><path d=" M 0 12.5 C 0 5.601 5.601 0 12.5 0 C 19.399 0 25 5.601 25 12.5 C 25 19.399 19.399 25 12.5 25 C 5.601 25 0 19.399 0 12.5 Z " fill="url(#_lgradient_4)"/><path d=" M 2 12.5 C 2 6.705 6.705 2 12.5 2 C 18.295 2 23 6.705 23 12.5 C 23 18.295 18.295 23 12.5 23 C 6.705 23 2 18.295 2 12.5 Z " fill="rgb(0,0,0)"/><path d=" M 6.469 12.5 C 6.469 9.171 9.171 6.469 12.5 6.469 C 15.829 6.469 18.531 9.171 18.531 12.5 C 18.531 15.829 15.829 18.531 12.5 18.531 C 9.171 18.531 6.469 15.829 6.469 12.5 Z " fill="rgb(214,95,82)"/><path d=" M 8.512 12.5 C 8.512 10.299 10.299 8.512 12.5 8.512 C 14.701 8.512 16.488 10.299 16.488 12.5 C 16.488 14.701 14.701 16.488 12.5 16.488 C 10.299 16.488 8.512 14.701 8.512 12.5 Z " fill="rgb(0,0,0)"/><g id="Group"><rect x="11.952" y="14.73" width="1.097" height="5.27" transform="matrix(1,0,0,1,0,0)" fill="rgb(214,95,82)"/><rect x="7.087" y="9.865" width="1.097" height="5.27" transform="matrix(0,1,-1,0,20.135,4.865)" fill="rgb(214,95,82)"/><rect x="11.952" y="5" width="1.097" height="5.27" transform="matrix(1,0,0,1,0,0)" fill="rgb(214,95,82)"/><rect x="16.817" y="9.865" width="1.097" height="5.27" transform="matrix(0,1,-1,0,29.865,-4.865)" fill="rgb(214,95,82)"/></g></g></svg>