<svg xmlns="http://www.w3.org/2000/svg" xmlns:xlink="http://www.w3.org/1999/xlink" style="isolation:isolate" viewBox="0 0 25 25" width="25" height="25"><defs><clipPath id="_clipPath_mnZSzRZCriFS4Pz68MYNOGkOoUoOcIML"><rect width="25" height="25"/></clipPath></defs><g clip-path="url(#_clipPath_mnZSzRZCriFS4Pz68MYNOGkOoUoOcIML)"><linearGradient id="_lgradient_6" x1="50.00000000000002%" y1="0%" x2="50.000000000000036%" y2="100.40364857777713%"><stop offset="0%" stop-opacity="1" style="stop-color:rgb(224,224,224)"/><stop offset="98.69565217391305%" stop-opacity="1" style="stop-color:rgb(175,175,175)"/></linearGradient><path d=" M 0 12.5 C 0 5.601 5.601 0 12.5 0 C 19.399 0 25 5.601 25 12.5 C 25 19.399 19.399 25 12.5 25 C 5.601 25 0 19.399 0 12.5 Z " fill="url(#_lgradient_6)"/><path d=" M 2 12.5 C 2 6.705 6.705 2 12.5 2 C 18.295 2 23 6.705 23 12.5 C 23 18.295 18.295 23 12.5 23 C 6.705 23 2 18.295 2 12.5 Z " fill="rgb(0,0,0)"/><polygon points="18.5,16.392,6.5,16.392,12.5,6" fill="rgb(196,196,196)"/><path d=" M 14.638 12.942 C 14.638 14.122 13.68 15.08 12.5 15.08 C 11.32 15.08 10.362 14.122 10.362 12.942 C 10.362 11.762 11.32 10.804 12.5 10.804 C 13.68 10.804 14.638 11.762 14.638 12.942 Z " fill="rgb(0,0,0)"/></g></svg>