<svg width="25" height="25" xmlns="http://www.w3.org/2000/svg" xmlns:xlink="http://www.w3.org/1999/xlink"><g transform="translate(-2635 1602)"><use xlink:href="#path0_fill" transform="translate(2635 -1602)"/><mask id="a"><use xlink:href="#path0_fill" fill="#fff" transform="translate(2635 -1602)"/></mask><g mask="url(#a)"><use xlink:href="#path1_stroke_2x" transform="translate(2635 -1602)" fill="url(#paint1_linear)"/></g></g><use xlink:href="#path2_fill" transform="translate(7.1 7.28)" fill="#C4C4C4"/><defs><linearGradient id="paint1_linear" x2="1" gradientUnits="userSpaceOnUse" gradientTransform="matrix(0 24.7215 -24.7341 0 24.734 0)"><stop offset="0" stop-color="#E0E0E0"/><stop offset="1" stop-color="#AFAFAF"/></linearGradient><path id="path0_fill" d="M24.734 12.36c0 6.827-5.537 12.361-12.367 12.361C5.537 24.721 0 19.188 0 12.361 0 5.534 5.537 0 12.367 0c6.83 0 12.367 5.534 12.367 12.36z"/><path id="path1_stroke_2x" d="M22.734 12.36c0 5.722-4.64 10.361-10.367 10.361v4c7.934 0 14.367-6.428 14.367-14.36h-4zM12.367 22.722C6.641 22.721 2 18.081 2 12.361h-4c0 7.932 6.433 14.36 14.367 14.36v-4zM2 12.361C2 6.64 6.64 2 12.367 2v-4C4.433-2-2 4.429-2 12.36h4zM12.367 2c5.727 0 10.367 4.64 10.367 10.36h4C26.734 4.43 20.301-2 12.367-2v4z"/><path id="path2_fill" d="M11.037 1.292c0 2.687-2.473 10.562-5.497 10.562C2.517 11.854 0 3.882 0 1.194c0-2.687 0 0 5.54 0 6.003 0 5.497-2.59 5.497.098z"/></defs></svg>