<svg xmlns="http://www.w3.org/2000/svg" xmlns:xlink="http://www.w3.org/1999/xlink" style="isolation:isolate" viewBox="0 0 25 25" width="25" height="25"><defs><clipPath id="_clipPath_BmI2VbuRrXZztoemEMOsxzMwHEExIzj8"><rect width="25" height="25"/></clipPath></defs><g clip-path="url(#_clipPath_BmI2VbuRrXZztoemEMOsxzMwHEExIzj8)"><linearGradient id="_lgradient_3" x1="50%" y1="0%" x2="50.000000000000014%" y2="100.40364857777713%"><stop offset="0%" stop-opacity="1" style="stop-color:rgb(224,224,224)"/><stop offset="98.69565217391305%" stop-opacity="1" style="stop-color:rgb(175,175,175)"/></linearGradient><path d=" M 0 12.5 C 0 5.601 5.601 0 12.5 0 C 19.399 0 25 5.601 25 12.5 C 25 19.399 19.399 25 12.5 25 C 5.601 25 0 19.399 0 12.5 Z " fill="url(#_lgradient_3)"/><path d=" M 2 12.5 C 2 6.705 6.705 2 12.5 2 C 18.295 2 23 6.705 23 12.5 C 23 18.295 18.295 23 12.5 23 C 6.705 23 2 18.295 2 12.5 Z " fill="rgb(0,0,0)"/><path d=" M 17.99 8.885 C 17.99 11.56 15.527 19.402 12.516 19.402 C 9.506 19.402 7 11.464 7 8.787 C 7 6.112 7 8.787 12.516 8.787 C 18.493 8.787 17.99 6.209 17.99 8.885 Z " fill="rgb(196,196,196)"/></g></svg>