<svg xmlns="http://www.w3.org/2000/svg" xmlns:xlink="http://www.w3.org/1999/xlink" style="isolation:isolate" viewBox="0 0 25 25" width="25" height="25"><defs><clipPath id="_clipPath_RAuedYwlyfoRHh03OHThsDo3MbdUnbuk"><rect width="25" height="25"/></clipPath></defs><g clip-path="url(#_clipPath_RAuedYwlyfoRHh03OHThsDo3MbdUnbuk)"><linearGradient id="_lgradient_5" x1="50.024233187493294%" y1="-2.272479428658197%" x2="48.90950656280374%" y2="102.26157428961946%"><stop offset="2.1739130434782594%" stop-opacity="1" style="stop-color:rgb(214,95,82)"/><stop offset="97.82608695652173%" stop-opacity="1" style="stop-color:rgb(156,70,61)"/></linearGradient><path d=" M 0 12.5 C 0 5.601 5.601 0 12.5 0 C 19.399 0 25 5.601 25 12.5 C 25 19.399 19.399 25 12.5 25 C 5.601 25 0 19.399 0 12.5 Z " fill="url(#_lgradient_5)"/><path d=" M 2 12.5 C 2 6.705 6.705 2 12.5 2 C 18.295 2 23 6.705 23 12.5 C 23 18.295 18.295 23 12.5 23 C 6.705 23 2 18.295 2 12.5 Z " fill="rgb(0,0,0)"/><g id="Group"><polygon points="6,8.688,19,8.688,12.5,19.946" fill="rgb(214,95,82)"/><path d=" M 10.184 12.426 C 10.184 11.147 11.222 10.109 12.5 10.109 C 13.778 10.109 14.816 11.147 14.816 12.426 C 14.816 13.704 13.778 14.742 12.5 14.742 C 11.222 14.742 10.184 13.704 10.184 12.426 Z " fill="rgb(0,0,0)"/></g></g></svg>