<svg width="25" height="25" xmlns="http://www.w3.org/2000/svg" xmlns:xlink="http://www.w3.org/1999/xlink"><g transform="translate(-2560 1603)"><use xlink:href="#path0_fill" transform="translate(2560 -1602.72)"/><mask id="a"><use xlink:href="#path0_fill" fill="#fff" transform="translate(2560 -1602.72)"/></mask><g mask="url(#a)"><use xlink:href="#path1_stroke_2x" transform="translate(2560 -1602.72)" fill="url(#paint1_linear)"/></g></g><use xlink:href="#path2_stroke" transform="translate(4.4 4.67)" fill="#D65F52"/><defs><linearGradient id="paint1_linear" x2="1" gradientUnits="userSpaceOnUse" gradientTransform="matrix(0 24.7215 -24.7341 0 24.734 0)"><stop offset=".077" stop-color="#D65F52"/><stop offset=".994" stop-color="#9C463D"/></linearGradient><path id="path0_fill" d="M24.734 12.36c0 6.827-5.537 12.361-12.367 12.361C5.537 24.721 0 19.188 0 12.361 0 5.534 5.537 0 12.367 0c6.83 0 12.367 5.534 12.367 12.36z"/><path id="path1_stroke_2x" d="M22.734 12.36c0 5.722-4.64 10.361-10.367 10.361v4c7.934 0 14.367-6.428 14.367-14.36h-4zM12.367 22.722C6.641 22.721 2 18.081 2 12.361h-4c0 7.932 6.433 14.36 14.367 14.36v-4zM2 12.361C2 6.64 6.64 2 12.367 2v-4C4.433-2-2 4.429-2 12.36h4zM12.367 2c5.727 0 10.367 4.64 10.367 10.36h4C26.734 4.43 20.301-2 12.367-2v4z"/><path id="path2_stroke" d="M12.966 7.931a5.03 5.03 0 0 1-5.03 5.029v1a6.03 6.03 0 0 0 6.03-6.029h-1zm-5.03-5.028a5.03 5.03 0 0 1 5.03 5.028h1a6.03 6.03 0 0 0-6.03-6.028v1zM2.905 7.931a5.03 5.03 0 0 1 5.03-5.028v-1a6.03 6.03 0 0 0-6.03 6.028h1zm5.03 5.029a5.03 5.03 0 0 1-5.03-5.029h-1a6.03 6.03 0 0 0 6.03 6.029v-1zm4.07-5.029a4.068 4.068 0 0 1-4.07 4.067v1c2.8 0 5.07-2.268 5.07-5.067h-1zm-4.07-4.066a4.068 4.068 0 0 1 4.07 4.066h1a5.068 5.068 0 0 0-5.07-5.066v1zM3.868 7.93a4.068 4.068 0 0 1 4.069-4.066v-1a5.068 5.068 0 0 0-5.07 5.066h1zm4.069 4.067a4.068 4.068 0 0 1-4.07-4.067h-1a5.068 5.068 0 0 0 5.07 5.067v-1zM7.47 0v5.768h1V0h-1zm0 9.34v5.768h1V9.339h-1zm7.645-1.874H9.344v1h5.771v-1zm-9.344 0H0v1h5.771v-1z"/></defs></svg>