<svg width="52" height="52" viewBox="0 0 52 52" version="1.1" xmlns="http://www.w3.org/2000/svg" xmlns:xlink="http://www.w3.org/1999/xlink">
<title>&#208;&#148;&#208;&#190;&#208;&#177;&#208;&#176;&#208;&#178;&#208;&#184;&#209;&#130;&#209;&#140;</title>
<desc>Created using Figma</desc>
<g id="Canvas" transform="translate(855 1573)">
<g id="&#208;&#148;&#208;&#190;&#208;&#177;&#208;&#176;&#208;&#178;&#208;&#184;&#209;&#130;&#209;&#140;">
<g id="&#208;&#154;&#209;&#128;&#209;&#131;&#208;&#179;">
<use xlink:href="#path0_fill" transform="translate(-855 -1573)"/>
<mask id="mask0_outline_ins">
<use xlink:href="#path0_fill" fill="white" transform="translate(-855 -1573)"/>
</mask>
<g mask="url(#mask0_outline_ins)">
<use xlink:href="#path1_stroke_2x" transform="translate(-855 -1573)" fill="#B5D054"/>
</g>
</g>
<g id="&#208;&#159;&#208;&#187;&#209;&#142;&#209;&#129;&#208;&#184;&#208;&#186;">
<g id="+">
<use xlink:href="#path2_fill" transform="translate(-837.144 -1556.2)" fill="#B5D054"/>
</g>
</g>
</g>
</g>
<defs>
<path id="path0_fill" d="M 52 26C 52 40.3594 40.3594 52 26 52C 11.6406 52 0 40.3594 0 26C 0 11.6406 11.6406 0 26 0C 40.3594 0 52 11.6406 52 26Z"/>
<path id="path1_stroke_2x" d="M 51 26C 51 39.8071 39.8071 51 26 51L 26 53C 40.9117 53 53 40.9117 53 26L 51 26ZM 26 51C 12.1929 51 1 39.8071 1 26L -1 26C -1 40.9117 11.0883 53 26 53L 26 51ZM 1 26C 1 12.1929 12.1929 1 26 1L 26 -1C 11.0883 -1 -1 11.0883 -1 26L 1 26ZM 26 1C 39.8071 1 51 12.1929 51 26L 53 26C 53 11.0883 40.9117 -1 26 -1L 26 1Z"/>
<path id="path2_fill" d="M 11.5488 6.67969L 17.543 6.67969L 17.543 11.7598L 11.5488 11.7598L 11.5488 18.6328L 6.01172 18.6328L 6.01172 11.7598L 0 11.7598L 0 6.67969L 6.01172 6.67969L 6.01172 0L 11.5488 0L 11.5488 6.67969Z"/>
</defs>
</svg>
