<svg xmlns="http://www.w3.org/2000/svg" xmlns:xlink="http://www.w3.org/1999/xlink" style="isolation:isolate" viewBox="0 0 36 36" width="36" height="36"><defs><clipPath id="_clipPath_2XdjPL3qN8LA5MgXlW4UtFUzjQUth4i9"><rect width="36" height="36"/></clipPath></defs><g clip-path="url(#_clipPath_2XdjPL3qN8LA5MgXlW4UtFUzjQUth4i9)"><polygon points="36,33.177,0,33.177,18,2" fill="rgb(214,95,82)"/><polygon points="29.797,29.69,6.203,29.69,18,9.257" fill="rgb(0,0,0)"/><path d=" M 19.013 24.323 L 17.004 24.323 L 16.722 15.703 L 19.296 15.703 L 19.013 24.323 Z  M 16.679 26.983 C 16.679 26.595 16.801 26.279 17.047 26.034 C 17.292 25.783 17.611 25.657 18.004 25.657 C 18.392 25.657 18.708 25.783 18.953 26.034 C 19.199 26.279 19.321 26.595 19.321 26.983 C 19.321 27.365 19.199 27.678 18.953 27.923 C 18.714 28.169 18.398 28.291 18.004 28.291 C 17.605 28.291 17.283 28.169 17.038 27.923 C 16.799 27.678 16.679 27.365 16.679 26.983 Z " fill="rgb(214,95,82)"/></g></svg>