<svg xmlns="http://www.w3.org/2000/svg" xmlns:xlink="http://www.w3.org/1999/xlink" style="isolation:isolate" viewBox="0 0 35 35" width="35" height="35"><defs><clipPath id="_clipPath_EymgZA9OCGlT0LUs13VnQKW1CJDAZLwo"><rect width="35" height="35"/></clipPath></defs><g clip-path="url(#_clipPath_EymgZA9OCGlT0LUs13VnQKW1CJDAZLwo)"><linearGradient id="_lgradient_0" x1="50%" y1="-2.222222222222222%" x2="50.000000000000014%" y2="99.99999999999999%"><stop offset="2.1739130434782608%" stop-opacity="1" style="stop-color:rgb(233,168,68)"/><stop offset="100%" stop-opacity="1" style="stop-color:rgb(203,110,36)"/></linearGradient><path d=" M 0 17.5 C 0 7.841 7.841 0 17.5 0 C 27.159 0 35 7.841 35 17.5 C 35 27.159 27.159 35 17.5 35 C 7.841 35 0 27.159 0 17.5 Z " fill="url(#_lgradient_0)"/><path d=" M 2 17.5 C 2 8.945 8.945 2 17.5 2 C 26.055 2 33 8.945 33 17.5 C 33 26.055 26.055 33 17.5 33 C 8.945 33 2 26.055 2 17.5 Z " fill="rgb(19,19,19)"/><path d=" M 17.5 5 L 20.306 13.637 L 29.388 13.637 L 22.041 18.975 L 24.847 27.613 L 17.5 22.275 L 10.153 27.613 L 12.959 18.975 L 5.612 13.637 L 14.694 13.637 L 17.5 5 Z " fill="rgb(233,168,68)"/></g></svg>