<svg xmlns="http://www.w3.org/2000/svg" xmlns:xlink="http://www.w3.org/1999/xlink" style="isolation:isolate" viewBox="0 0 30 30" width="30" height="30"><defs><clipPath id="_clipPath_kFmd9CQTNnvG5rwwQXy0ObeYrjo6JyCp"><rect width="30" height="30"/></clipPath></defs><g clip-path="url(#_clipPath_kFmd9CQTNnvG5rwwQXy0ObeYrjo6JyCp)"><linearGradient id="_lgradient_2" x1="50%" y1="-2.222222222222222%" x2="50.000000000000014%" y2="99.99999999999999%"><stop offset="2.1739130434782608%" stop-opacity="1" style="stop-color:rgb(233,168,68)"/><stop offset="100%" stop-opacity="1" style="stop-color:rgb(203,110,36)"/></linearGradient><path d=" M 0 15 C 0 6.721 6.721 0 15 0 C 23.279 0 30 6.721 30 15 C 30 23.279 23.279 30 15 30 C 6.721 30 0 23.279 0 15 Z " fill="url(#_lgradient_2)"/><path d=" M 2 15 C 2 7.825 7.825 2 15 2 C 22.175 2 28 7.825 28 15 C 28 22.175 22.175 28 15 28 C 7.825 28 2 22.175 2 15 Z " fill="rgb(19,19,19)"/><path d=" M 15.707 7.016 C 15.317 6.625 14.683 6.625 14.293 7.016 L 7.929 13.38 C 7.538 13.77 7.538 14.403 7.929 14.794 C 8.319 15.184 8.953 15.184 9.343 14.794 L 15 9.137 L 20.657 14.794 C 21.047 15.184 21.681 15.184 22.071 14.794 C 22.462 14.403 22.462 13.77 22.071 13.38 L 15.707 7.016 Z  M 16 23.277 L 16 7.723 L 14 7.723 L 14 23.277 L 16 23.277 Z " fill="rgb(233,168,68)"/></g></svg>