<svg xmlns="http://www.w3.org/2000/svg" xmlns:xlink="http://www.w3.org/1999/xlink" style="isolation:isolate" viewBox="0 0 35 35" width="35" height="35"><defs><clipPath id="_clipPath_JfNRnmwRwdBilAzBJaNViCnv3YoIGuTH"><rect width="35" height="35"/></clipPath></defs><g clip-path="url(#_clipPath_JfNRnmwRwdBilAzBJaNViCnv3YoIGuTH)"><linearGradient id="_lgradient_0" x1="50%" y1="-2.222222222222222%" x2="50.000000000000014%" y2="99.99999999999999%"><stop offset="2.1739130434782608%" stop-opacity="1" style="stop-color:rgb(233,168,68)"/><stop offset="100%" stop-opacity="1" style="stop-color:rgb(203,110,36)"/></linearGradient><path d=" M 0 17.5 C 0 7.841 7.841 0 17.5 0 C 27.159 0 35 7.841 35 17.5 C 35 27.159 27.159 35 17.5 35 C 7.841 35 0 27.159 0 17.5 Z " fill="url(#_lgradient_0)"/><path d=" M 2 17.5 C 2 8.945 8.945 2 17.5 2 C 26.055 2 33 8.945 33 17.5 C 33 26.055 26.055 33 17.5 33 C 8.945 33 2 26.055 2 17.5 Z " fill="rgb(19,19,19)"/><linearGradient id="_lgradient_1" x1="98.7919995543063%" y1="7.527091575091571%" x2="98.79199955430627%" y2="131.50716483516482%"><stop offset="0%" stop-opacity="1" style="stop-color:rgb(255,217,158)"/><stop offset="98.26086956521739%" stop-opacity="1" style="stop-color:rgb(233,168,68)"/></linearGradient><path d=" M 11.414 19.901 L 13.207 12.172 L 15.608 12.172 L 12.534 22.828 L 10.294 22.828 L 7.242 12.172 L 9.628 12.172 L 11.414 19.901 Z  M 18.858 22.828 L 16.706 22.828 L 16.706 12.172 L 18.858 12.172 L 18.858 22.828 Z  M 22.817 19.081 L 22.817 22.828 L 20.666 22.828 L 20.666 12.172 L 24.296 12.172 C 25.35 12.172 26.189 12.498 26.814 13.152 C 27.443 13.806 27.758 14.655 27.758 15.699 C 27.758 16.744 27.448 17.568 26.828 18.173 C 26.209 18.778 25.35 19.081 24.252 19.081 L 22.817 19.081 Z  M 22.817 17.288 L 24.296 17.288 C 24.706 17.288 25.023 17.154 25.247 16.885 C 25.472 16.617 25.584 16.226 25.584 15.714 C 25.584 15.182 25.469 14.76 25.24 14.448 C 25.011 14.131 24.703 13.97 24.318 13.965 L 22.817 13.965 L 22.817 17.288 Z " fill="url(#_lgradient_1)"/></g></svg>