<svg width="26" height="26" viewBox="0 0 26 26" version="1.1" xmlns="http://www.w3.org/2000/svg" xmlns:xlink="http://www.w3.org/1999/xlink">
<title>&#208;&#152;&#208;&#186;&#208;&#190;&#208;&#189;&#208;&#186;&#208;&#176; &#208;&#188;&#208;&#190;&#208;&#182;&#208;&#189;&#208;&#190; &#208;&#188;&#208;&#190;&#208;&#180;&#208;&#181;&#209;&#128;&#208;&#189;&#208;&#184;&#208;&#183;&#208;&#184;&#209;&#128;&#208;&#190;&#208;&#178;&#208;&#176;&#209;&#130;&#209;&#140;</title>
<desc>Created using Figma</desc>
<g id="Canvas" transform="translate(1090 1615)">
<g id="&#208;&#152;&#208;&#186;&#208;&#190;&#208;&#189;&#208;&#186;&#208;&#176; &#208;&#188;&#208;&#190;&#208;&#182;&#208;&#189;&#208;&#190; &#208;&#188;&#208;&#190;&#208;&#180;&#208;&#181;&#209;&#128;&#208;&#189;&#208;&#184;&#208;&#183;&#208;&#184;&#209;&#128;&#208;&#190;&#208;&#178;&#208;&#176;&#209;&#130;&#209;&#140;">
<g id="Ellipse">
<use xlink:href="#path0_fill" transform="translate(-1090 -1615)"/>
<mask id="mask0_outline_ins">
<use xlink:href="#path0_fill" fill="white" transform="translate(-1090 -1615)"/>
</mask>
<g mask="url(#mask0_outline_ins)">
<use xlink:href="#path1_stroke_2x" transform="translate(-1090 -1615)" fill="#B5D054"/>
</g>
</g>
<g id="Arrow">
<use xlink:href="#path2_stroke" transform="matrix(6.12323e-17 -1 1 6.12323e-17 -1077 -1596)" fill="#B5D054"/>
</g>
</g>
</g>
<defs>
<path id="path0_fill" d="M 26 13C 26 20.1797 20.1797 26 13 26C 5.8203 26 0 20.1797 0 13C 0 5.8203 5.8203 0 13 0C 20.1797 0 26 5.8203 26 13Z"/>
<path id="path1_stroke_2x" d="M 24 13C 24 19.0751 19.0751 24 13 24L 13 28C 21.2843 28 28 21.2843 28 13L 24 13ZM 13 24C 6.92487 24 2 19.0751 2 13L -2 13C -2 21.2843 4.71573 28 13 28L 13 24ZM 2 13C 2 6.92487 6.92487 2 13 2L 13 -2C 4.71573 -2 -2 4.71573 -2 13L 2 13ZM 13 2C 19.0751 2 24 6.92487 24 13L 28 13C 28 4.71573 21.2843 -2 13 -2L 13 2Z"/>
<path id="path2_stroke" d="M 11.7071 0.707107C 12.0976 0.316583 12.0976 -0.316583 11.7071 -0.707107L 5.34315 -7.07107C 4.95262 -7.46159 4.31946 -7.46159 3.92893 -7.07107C 3.53841 -6.68054 3.53841 -6.04738 3.92893 -5.65685L 9.58579 0L 3.92893 5.65685C 3.53841 6.04738 3.53841 6.68054 3.92893 7.07107C 4.31946 7.46159 4.95262 7.46159 5.34315 7.07107L 11.7071 0.707107ZM 0 1L 11 1L 11 -1L 0 -1L 0 1Z"/>
</defs>
</svg>
