<svg xmlns="http://www.w3.org/2000/svg" xmlns:xlink="http://www.w3.org/1999/xlink" style="isolation:isolate" viewBox="0 0 45 45" width="45" height="45"><defs><clipPath id="_clipPath_simdFk6MqtKOt6gtF8GaFxJoMpODydD0"><rect width="45" height="45"/></clipPath></defs><g clip-path="url(#_clipPath_simdFk6MqtKOt6gtF8GaFxJoMpODydD0)"><linearGradient id="_lgradient_0" x1="103.57142857142858%" y1="-3.571428571428572%" x2="103.57142857142856%" y2="103.57142857142858%"><stop offset="0%" stop-opacity="1" style="stop-color:rgb(233,168,68)"/><stop offset="100%" stop-opacity="1" style="stop-color:rgb(214,95,82)"/></linearGradient><path d=" M 0 22.5 C 0 10.082 10.082 0 22.5 0 C 34.918 0 45 10.082 45 22.5 C 45 34.918 34.918 45 22.5 45 C 10.082 45 0 34.918 0 22.5 Z " fill="url(#_lgradient_0)"/><path d=" M 3 22.671 C 3 11.909 11.738 3.171 22.5 3.171 C 33.262 3.171 42 11.909 42 22.671 C 42 33.433 33.262 42.171 22.5 42.171 C 11.738 42.171 3 33.433 3 22.671 Z " fill="rgb(0,0,0)"/><linearGradient id="_lgradient_1" x1="100%" y1="-21.122944449329882%" x2="99.99999999999997%" y2="121.4792121706187%"><stop offset="0%" stop-opacity="1" style="stop-color:rgb(214,95,82)"/><stop offset="100%" stop-opacity="1" style="stop-color:rgb(233,168,68)"/></linearGradient><path d=" M 20.562 32.811 C 18.681 32.477 17.135 31.653 15.922 30.338 C 14.307 28.566 13.5 26.138 13.5 23.053 L 13.5 21.802 C 13.5 19.833 13.873 18.098 14.62 16.598 C 15.367 15.098 16.432 13.95 17.815 13.153 C 18.65 12.669 19.566 12.331 20.562 12.137 L 20.562 7.842 L 24.438 7.842 L 24.438 12.058 C 26.176 12.291 27.632 12.886 28.805 13.842 C 30.36 15.108 31.258 16.884 31.5 19.172 L 26.958 19.172 C 26.847 17.85 26.449 16.894 25.762 16.303 C 25.086 15.703 24.052 15.403 22.659 15.403 C 21.145 15.403 20.01 15.909 19.253 16.922 C 18.506 17.925 18.122 19.486 18.102 21.605 L 18.102 23.152 C 18.102 25.364 18.46 26.981 19.177 28.003 C 19.904 29.025 21.044 29.536 22.598 29.536 C 24.001 29.536 25.046 29.241 25.732 28.65 C 26.429 28.05 26.827 27.127 26.928 25.88 L 31.47 25.88 C 31.298 28.083 30.42 29.817 28.836 31.083 C 27.654 32.033 26.188 32.626 24.438 32.863 L 24.438 37.5 L 20.562 37.5 L 20.562 32.811 Z " fill="url(#_lgradient_1)"/></g></svg>