<svg width="25" height="25" viewBox="0 0 25 25" version="1.1" xmlns="http://www.w3.org/2000/svg" xmlns:xlink="http://www.w3.org/1999/xlink">
<title>&#208;&#152;&#208;&#186;&#208;&#190;&#208;&#189;&#208;&#186;&#208;&#176; &#209;&#129;&#209;&#130;&#209;&#128;&#208;&#190;&#208;&#185;&#208;&#186;&#208;&#184;</title>
<desc>Created using Figma</desc>
<g id="Canvas" transform="translate(1026 1614)">
<g id="&#208;&#152;&#208;&#186;&#208;&#190;&#208;&#189;&#208;&#186;&#208;&#176; &#209;&#129;&#209;&#130;&#209;&#128;&#208;&#190;&#208;&#185;&#208;&#186;&#208;&#184;">
<g id="Ellipse">
<use xlink:href="#path0_fill" transform="translate(-1026 -1614)"/>
<mask id="mask0_outline_ins">
<use xlink:href="#path0_fill" fill="white" transform="translate(-1026 -1614)"/>
</mask>
<g mask="url(#mask0_outline_ins)">
<use xlink:href="#path1_stroke_2x" transform="translate(-1026 -1614)" fill="#E9A844"/>
</g>
</g>
<g id="Subtract">
<use xlink:href="#path2_fill" transform="translate(-1021.73 -1609.73)" fill="#E9A844"/>
</g>
</g>
</g>
<defs>
<path id="path0_fill" d="M 25 12.5C 25 19.4036 19.4036 25 12.5 25C 5.59644 25 0 19.4036 0 12.5C 0 5.59644 5.59644 0 12.5 0C 19.4036 0 25 5.59644 25 12.5Z"/>
<path id="path1_stroke_2x" d="M 23 12.5C 23 18.299 18.299 23 12.5 23L 12.5 27C 20.5081 27 27 20.5081 27 12.5L 23 12.5ZM 12.5 23C 6.70101 23 2 18.299 2 12.5L -2 12.5C -2 20.5081 4.49187 27 12.5 27L 12.5 23ZM 2 12.5C 2 6.70101 6.70101 2 12.5 2L 12.5 -2C 4.49187 -2 -2 4.49187 -2 12.5L 2 12.5ZM 12.5 2C 18.299 2 23 6.70101 23 12.5L 27 12.5C 27 4.49187 20.5081 -2 12.5 -2L 12.5 2Z"/>
<path id="path2_fill" d="M 0 6.60083C 0.192322 7.03564 0.46283 7.43774 0.812744 7.7876C 2.25092 9.22571 4.57074 9.32275 6.41754 8.16125L 14.0594 15.8031L 15.8032 14.0594L 8.16125 6.4176C 9.32281 4.5708 9.22577 2.25085 7.7876 0.812744C 7.43768 0.462891 7.03564 0.192261 6.60089 0L 5.63562 0.96521C 6.9458 2.47827 7.06403 4.57605 5.85809 5.7821C 4.6521 6.98804 2.55438 6.86987 1.04126 5.55957L 0 6.60083Z"/>
</defs>
</svg>
