<svg width="26" height="26" viewBox="0 0 26 26" version="1.1" xmlns="http://www.w3.org/2000/svg" xmlns:xlink="http://www.w3.org/1999/xlink">
<title>&#208;&#152;&#208;&#186;&#208;&#190;&#208;&#189;&#208;&#186;&#208;&#176; &#208;&#189;&#208;&#181;&#209;&#130; &#209;&#130;&#208;&#181;&#209;&#133;&#208;&#189;&#208;&#190;&#208;&#187;&#208;&#190;&#208;&#179;&#208;&#184;&#208;&#185;</title>
<desc>Created using Figma</desc>
<g id="Canvas" transform="translate(1059 1615)">
<g id="&#208;&#152;&#208;&#186;&#208;&#190;&#208;&#189;&#208;&#186;&#208;&#176; &#208;&#189;&#208;&#181;&#209;&#130; &#209;&#130;&#208;&#181;&#209;&#133;&#208;&#189;&#208;&#190;&#208;&#187;&#208;&#190;&#208;&#179;&#208;&#184;&#208;&#185;">
<g id="Ellipse">
<use xlink:href="#path0_fill" transform="translate(-1059 -1615)"/>
<mask id="mask0_outline_ins">
<use xlink:href="#path0_fill" fill="white" transform="translate(-1059 -1615)"/>
</mask>
<g mask="url(#mask0_outline_ins)">
<use xlink:href="#path1_stroke_2x" transform="translate(-1059 -1615)" fill="#D65F52"/>
</g>
</g>
<g id="Rectangle">
<use xlink:href="#path2_fill" transform="matrix(0.707107 0.707107 -0.707107 0.707107 -1039.38 -1610.82)" fill="#D65F52"/>
</g>
</g>
</g>
<defs>
<path id="path0_fill" d="M 26 13C 26 20.1797 20.1797 26 13 26C 5.8203 26 0 20.1797 0 13C 0 5.8203 5.8203 0 13 0C 20.1797 0 26 5.8203 26 13Z"/>
<path id="path1_stroke_2x" d="M 24 13C 24 19.0751 19.0751 24 13 24L 13 28C 21.2843 28 28 21.2843 28 13L 24 13ZM 13 24C 6.92487 24 2 19.0751 2 13L -2 13C -2 21.2843 4.71573 28 13 28L 13 24ZM 2 13C 2 6.92487 6.92487 2 13 2L 13 -2C 4.71573 -2 -2 4.71573 -2 13L 2 13ZM 13 2C 19.0751 2 24 6.92487 24 13L 28 13C 28 4.71573 21.2843 -2 13 -2L 13 2Z"/>
<path id="path2_fill" d="M 0 0L 3.12 0L 3.12 21.84L 0 21.84L 0 0Z"/>
</defs>
</svg>
