<svg xmlns="http://www.w3.org/2000/svg" xmlns:xlink="http://www.w3.org/1999/xlink" style="isolation:isolate" viewBox="0 0 26 26" width="26" height="26"><defs><clipPath id="_clipPath_cZwGb0ke1zAcWVFvodyBxW8C05EMcWia"><rect width="26" height="26"/></clipPath></defs><g clip-path="url(#_clipPath_cZwGb0ke1zAcWVFvodyBxW8C05EMcWia)"><path d=" M 0 13 C 0 5.825 5.825 0 13 0 C 20.175 0 26 5.825 26 13 C 26 20.175 20.175 26 13 26 C 5.825 26 0 20.175 0 13 Z " fill="rgb(233,168,68)"/><path d=" M 2 13 C 2 6.929 6.929 2 13 2 C 19.071 2 24 6.929 24 13 C 24 19.071 19.071 24 13 24 C 6.929 24 2 19.071 2 13 Z " fill="rgb(0,0,0)"/><path d=" M 5.621 11.543 C 5.794 11.933 6.036 12.293 6.35 12.607 C 7.639 13.896 9.719 13.983 11.375 12.942 L 18.226 19.793 L 19.79 18.23 L 12.938 11.379 C 13.98 9.723 13.893 7.643 12.603 6.354 C 12.29 6.04 11.929 5.797 11.539 5.625 L 10.674 6.49 C 11.849 7.847 11.955 9.728 10.873 10.809 C 9.792 11.89 7.912 11.784 6.555 10.609 L 5.621 11.543 Z " fill="rgb(233,168,68)"/></g></svg>