<svg xmlns="http://www.w3.org/2000/svg" xmlns:xlink="http://www.w3.org/1999/xlink" style="isolation:isolate" viewBox="0 0 26 26" width="26" height="26"><defs><clipPath id="_clipPath_iQVD2xd62IUiQ0HmWd3YSczDJAeWKphQ"><rect width="26" height="26"/></clipPath></defs><g clip-path="url(#_clipPath_iQVD2xd62IUiQ0HmWd3YSczDJAeWKphQ)"><path d=" M 0 13 C 0 5.825 5.825 0 13 0 C 20.175 0 26 5.825 26 13 C 26 20.175 20.175 26 13 26 C 5.825 26 0 20.175 0 13 Z " fill="rgb(214,95,82)"/><path d=" M 2 13 C 2 6.929 6.929 2 13 2 C 19.071 2 24 6.929 24 13 C 24 19.071 19.071 24 13 24 C 6.929 24 2 19.071 2 13 Z " fill="rgb(0,0,0)"/><path d=" M 20.045 4.045 L 21.957 5.957 L 5.958 21.955 L 4.046 20.043 L 20.045 4.045 Z " fill="rgb(214,95,82)"/></g></svg>