<svg xmlns="http://www.w3.org/2000/svg" xmlns:xlink="http://www.w3.org/1999/xlink" style="isolation:isolate" viewBox="0 0 26 26" width="26" height="26"><defs><clipPath id="_clipPath_f9sH1FKN1LeGu4yMNarWkIXAF9Bvh7Ii"><rect width="26" height="26"/></clipPath></defs><g clip-path="url(#_clipPath_f9sH1FKN1LeGu4yMNarWkIXAF9Bvh7Ii)"><path d=" M 0 13 C 0 5.825 5.825 0 13 0 C 20.175 0 26 5.825 26 13 C 26 20.175 20.175 26 13 26 C 5.825 26 0 20.175 0 13 Z " fill="rgb(181,208,84)"/><path d=" M 2 13 C 2 6.929 6.929 2 13 2 C 19.071 2 24 6.929 24 13 C 24 19.071 19.071 24 13 24 C 6.929 24 2 19.071 2 13 Z " fill="rgb(0,0,0)"/><path d=" M 12 10.414 L 7.343 15.071 C 6.407 16.007 4.993 14.593 5.929 13.657 L 5.929 13.657 L 12.293 7.293 C 12.701 6.885 13.299 6.885 13.707 7.293 L 13.707 7.293 L 20.071 13.657 C 21.007 14.593 19.593 16.007 18.657 15.071 L 18.657 15.071 L 14 10.414 L 14 19 L 12 19 L 12 10.414 Z " fill="rgb(181,208,84)"/></g></svg>