<svg xmlns="http://www.w3.org/2000/svg" xmlns:xlink="http://www.w3.org/1999/xlink" style="isolation:isolate" viewBox="0 0 28 17" width="28" height="17"><defs><clipPath id="_clipPath_1qrJCRyfJFFzu8ovcHC183AaQd9z465h"><rect width="28" height="17"/></clipPath></defs><g clip-path="url(#_clipPath_1qrJCRyfJFFzu8ovcHC183AaQd9z465h)"><path d=" M 0 0 L 28 0 L 28 17 L 0 17 L 0 0 Z  M 2 2 L 26 2 L 26 15 L 2 15 L 2 2 Z " fill-rule="evenodd" fill="rgb(86,186,242)"/><g id="Group"><rect x="4.326" y="5.389" width="2" height="12.593" transform="matrix(0.737,0.676,-0.676,0.737,9.304,-0.525)" fill="rgb(86,186,242)"/><rect x="21.674" y="5.389" width="2" height="12.593" transform="matrix(0.737,-0.676,0.676,0.737,-1.932,18.41)" fill="rgb(86,186,242)"/></g><g id="Group"><rect x="19" y="-2.51" width="2" height="17" transform="matrix(0.612,0.791,-0.791,0.612,12.508,-13.497)" fill="rgb(86,186,242)"/><rect x="7" y="-2.51" width="2" height="17" transform="matrix(0.612,-0.791,0.791,0.612,-1.631,8.656)" fill="rgb(86,186,242)"/></g></g></svg>