<svg xmlns="http://www.w3.org/2000/svg" xmlns:xlink="http://www.w3.org/1999/xlink" style="isolation:isolate" viewBox="0 0 20 20" width="20" height="20"><defs><clipPath id="_clipPath_26xNMMCmLxLQzpC7ltJpX96HfKyVpIEq"><rect width="20" height="20"/></clipPath></defs><g clip-path="url(#_clipPath_26xNMMCmLxLQzpC7ltJpX96HfKyVpIEq)"><path d=" M 8 2.252 L 8 0.652 C 8 0.292 8.292 0 8.652 0 L 11.348 0 C 11.708 0 12 0.292 12 0.652 L 12 2.252 C 12.734 2.442 13.427 2.732 14.063 3.109 L 15.196 1.976 C 15.45 1.721 15.863 1.721 16.118 1.976 L 18.024 3.882 C 18.279 4.137 18.279 4.55 18.024 4.804 L 16.891 5.937 C 17.268 6.573 17.558 7.266 17.748 8 L 19.348 8 C 19.708 8 20 8.292 20 8.652 L 20 11.348 C 20 11.708 19.708 12 19.348 12 L 17.748 12 C 17.558 12.734 17.268 13.427 16.891 14.063 L 18.024 15.196 C 18.279 15.45 18.279 15.863 18.024 16.118 L 16.118 18.024 C 15.863 18.279 15.45 18.279 15.196 18.024 L 14.063 16.891 C 13.427 17.268 12.734 17.558 12 17.748 L 12 19.348 C 12 19.708 11.708 20 11.348 20 L 8.652 20 C 8.292 20 8 19.708 8 19.348 L 8 17.748 C 7.266 17.558 6.573 17.268 5.937 16.891 L 4.804 18.024 C 4.55 18.279 4.137 18.279 3.882 18.024 L 1.976 16.118 C 1.721 15.863 1.721 15.45 1.976 15.196 L 3.109 14.063 C 2.732 13.427 2.442 12.734 2.252 12 L 0.652 12 C 0.292 12 0 11.708 0 11.348 L 0 8.652 C 0 8.292 0.292 8 0.652 8 L 2.252 8 C 2.442 7.266 2.732 6.573 3.109 5.937 L 1.976 4.804 C 1.721 4.55 1.721 4.137 1.976 3.882 L 3.882 1.976 C 4.137 1.721 4.55 1.721 4.804 1.976 L 5.937 3.109 C 6.573 2.732 7.266 2.442 8 2.252 Z  M 7 10 C 7 8.344 8.344 7 10 7 C 11.656 7 13 8.344 13 10 C 13 11.656 11.656 13 10 13 C 8.344 13 7 11.656 7 10 Z " fill-rule="evenodd" fill="rgb(86,186,242)"/></g></svg>