<svg xmlns="http://www.w3.org/2000/svg" xmlns:xlink="http://www.w3.org/1999/xlink" style="isolation:isolate" viewBox="0 0 53 53" width="53" height="53">
  <style>/* <![CDATA[ */
    @keyframes animation {0%,45%{x: -5} 55%,100%{x: 54}}
    .crownRect{fill:#fefeca;animation:animation 8s linear infinite}
    /* ]]> */</style>
<defs><clipPath id="_clipPath_MavAnRle1J9rzjYsx4b0Xi4CTwTpfzmZ"><rect width="53" height="53"/></clipPath></defs><g clip-path="url(#_clipPath_MavAnRle1J9rzjYsx4b0Xi4CTwTpfzmZ)"><clipPath id="_clipPath_Exo7A9aBfwhKME9ScM9m6DZaWJU5ItiG"><path d=" M 26.5 12.005 L 20.875 23.75 L 20.799 23.775 C 22.531 23.985 23.875 25.462 23.875 27.25 C 23.875 29.182 22.307 30.75 20.375 30.75 C 18.443 30.75 16.875 29.182 16.875 27.25 C 16.875 26.258 17.289 25.361 17.953 24.724 L 17.875 24.75 L 10.875 17.75 L 14.5 36.75 L 26.5 36.874 L 26.5 36.875 L 26.531 36.875 L 26.563 36.875 L 26.563 36.874 L 38.563 36.75 L 42.188 17.75 L 35.188 24.75 L 35.109 24.724 C 35.774 25.361 36.188 26.258 36.188 27.25 C 36.188 29.182 34.619 30.75 32.688 30.75 C 30.756 30.75 29.188 29.182 29.188 27.25 C 29.188 25.462 30.532 23.985 32.264 23.775 L 32.188 23.75 L 26.563 12.005 L 26.563 11.875 L 26.531 11.94 L 26.5 11.875 L 26.5 12.005 Z " fill="rgb(255,255,255)"/></clipPath><g clip-path="url(#_clipPath_Exo7A9aBfwhKME9ScM9m6DZaWJU5ItiG)"><rect class="crownRect" x="-5" y="9.25" width="5" height="30"/></g></g></svg>