<svg width="42" height="42" viewBox="0 0 42 42" version="1.1" xmlns="http://www.w3.org/2000/svg" xmlns:xlink="http://www.w3.org/1999/xlink">
<title>&#208;&#152;&#208;&#186;&#208;&#190;&#208;&#189;&#208;&#186;&#208;&#176; &#208;&#161;&#209;&#128;&#208;&#176;&#208;&#182;&#208;&#181;&#208;&#189;&#208;&#184;&#209;&#143;</title>
<desc>Created using Figma</desc>
<g id="Canvas" transform="translate(29 -306)">
<g id="&#208;&#152;&#208;&#186;&#208;&#190;&#208;&#189;&#208;&#186;&#208;&#176; &#208;&#161;&#209;&#128;&#208;&#176;&#208;&#182;&#208;&#181;&#208;&#189;&#208;&#184;&#209;&#143;">
<g id="&#208;&#154;&#209;&#128;&#209;&#131;&#208;&#179;2">
<use xlink:href="#path0_fill" transform="translate(-28.0252 306.695)"/>
<mask id="mask0_outline_ins">
<use xlink:href="#path0_fill" fill="white" transform="translate(-28.0252 306.695)"/>
</mask>
<g mask="url(#mask0_outline_ins)">
<use xlink:href="#path1_stroke_2x" transform="translate(-28.0252 306.695)" fill="url(#paint1_linear)"/>
</g>
</g>
<g id="Line 2">
<use xlink:href="#path2_stroke" transform="matrix(0.706949 0.707265 -0.706952 0.707262 -16.1859 319.507)" fill="#E9A844"/>
</g>
<g id="Line 2">
<use xlink:href="#path3_stroke" transform="matrix(-0.706949 0.707265 -0.706952 -0.707262 0.602123 329.337)" fill="#E9A844"/>
</g>
<g id="Line 2">
<use xlink:href="#path4_stroke" transform="matrix(-0.697419 0.716664 -0.716349 -0.697742 -0.795229 317.629)" fill="#E9A844"/>
</g>
<g id="Line 2">
<use xlink:href="#path5_stroke" transform="matrix(-0.716352 -0.697739 0.697416 -0.716667 -10.3959 334.555)" fill="#E9A844"/>
</g>
</g>
</g>
<defs>
<linearGradient id="paint1_linear" x1="0" y1="0" x2="1" y2="0" gradientUnits="userSpaceOnUse" gradientTransform="matrix(2.50949e-15 41.0014 -40.9831 2.51061e-15 40.9831 -2.51061e-15)">
<stop offset="0.0110497" stop-color="#E9A844"/>
<stop offset="1" stop-color="#CB9138"/>
</linearGradient>
<path id="path0_fill" d="M 40.9831 20.5007C 40.9831 31.8229 31.8087 41.0014 20.4915 41.0014C 9.17437 41.0014 0 31.8229 0 20.5007C 0 9.17847 9.17437 0 20.4915 0C 31.8087 0 40.9831 9.17847 40.9831 20.5007Z"/>
<path id="path1_stroke_2x" d="M 38.9831 20.5007C 38.9831 30.7192 30.7033 39.0014 20.4915 39.0014L 20.4915 43.0014C 32.9141 43.0014 42.9831 32.9266 42.9831 20.5007L 38.9831 20.5007ZM 20.4915 39.0014C 10.2798 39.0014 2 30.7192 2 20.5007L -2 20.5007C -2 32.9266 8.06896 43.0014 20.4915 43.0014L 20.4915 39.0014ZM 2 20.5007C 2 10.2822 10.2798 2 20.4915 2L 20.4915 -2C 8.06896 -2 -2 8.07474 -2 20.5007L 2 20.5007ZM 20.4915 2C 30.7033 2 38.9831 10.2822 38.9831 20.5007L 42.9831 20.5007C 42.9831 8.07474 32.9141 -2 20.4915 -2L 20.4915 2Z"/>
<path id="path2_stroke" d="M 0 0L 24.6792 0L 24.6792 -2L 0 -2L 0 0Z"/>
<path id="path3_stroke" d="M 0 0L 7.89778 0L 7.89778 -2L 0 -2L 0 0Z"/>
<path id="path4_stroke" d="M 0 0L 24.6794 0L 24.6794 -2L 0 -2L 0 0Z"/>
<path id="path5_stroke" d="M 0 0L 7.89773 0L 7.89773 -2L 0 -2L 0 0Z"/>
</defs>
</svg>
