<svg width="42" height="42" viewBox="0 0 42 42" version="1.1" xmlns="http://www.w3.org/2000/svg" xmlns:xlink="http://www.w3.org/1999/xlink">
<title>&#208;&#152;&#208;&#186;&#208;&#190;&#208;&#189;&#208;&#186;&#208;&#176; &#208;&#154;&#208;&#190;&#208;&#189;&#209;&#129;&#209;&#131;&#208;&#187;&#208;&#190;&#208;&#178;</title>
<desc>Created using Figma</desc>
<g id="Canvas" transform="translate(-55 -166)">
<g id="&#208;&#152;&#208;&#186;&#208;&#190;&#208;&#189;&#208;&#186;&#208;&#176; &#208;&#154;&#208;&#190;&#208;&#189;&#209;&#129;&#209;&#131;&#208;&#187;&#208;&#190;&#208;&#178;">
<g id="&#208;&#154;&#209;&#128;&#209;&#131;&#208;&#179;2">
<use xlink:href="#path0_fill" transform="translate(55.1119 166.119)"/>
<mask id="mask0_outline_ins">
<use xlink:href="#path0_fill" fill="white" transform="translate(55.1119 166.119)"/>
</mask>
<g mask="url(#mask0_outline_ins)">
<use xlink:href="#path1_stroke_2x" transform="translate(55.1119 166.119)" fill="url(#paint1_linear)"/>
</g>
</g>
<g id="Polygon">
<use xlink:href="#path2_fill" transform="matrix(-1 0 0 1 88.0552 179.786)" fill="url(#paint2_linear)"/>
<use xlink:href="#path3_fill" transform="matrix(-1 0 0 1 88.0552 179.786)" fill="url(#paint3_linear)"/>
<use xlink:href="#path4_fill" transform="matrix(-1 0 0 1 88.0552 179.786)" fill="url(#paint4_linear)"/>
<use xlink:href="#path5_fill" transform="matrix(-1 0 0 1 88.0552 179.786)" fill="url(#paint5_linear)"/>
</g>
</g>
</g>
<defs>
<linearGradient id="paint1_linear" x1="0" y1="0" x2="1" y2="0" gradientUnits="userSpaceOnUse" gradientTransform="matrix(2.50949e-15 41.0014 -40.9831 2.51061e-15 40.9831 -2.51061e-15)">
<stop offset="0" stop-color="#56BAF2"/>
<stop offset="1" stop-color="#2A759F"/>
</linearGradient>
<linearGradient id="paint2_linear" x1="0" y1="0" x2="1" y2="0" gradientUnits="userSpaceOnUse" gradientTransform="matrix(1.5153e-15 10.5179 -24.7467 6.44037e-16 24.7467 -6.44037e-16)">
<stop offset="0" stop-color="#97D9FE"/>
<stop offset="1" stop-color="#56BAF2"/>
</linearGradient>
<linearGradient id="paint3_linear" x1="0" y1="0" x2="1" y2="0" gradientUnits="userSpaceOnUse" gradientTransform="matrix(1.5153e-15 10.5179 -24.7467 6.44037e-16 24.7467 -6.44037e-16)">
<stop offset="0" stop-color="#97D9FE"/>
<stop offset="1" stop-color="#56BAF2"/>
</linearGradient>
<linearGradient id="paint4_linear" x1="0" y1="0" x2="1" y2="0" gradientUnits="userSpaceOnUse" gradientTransform="matrix(1.5153e-15 10.5179 -24.7467 6.44037e-16 24.7467 -6.44037e-16)">
<stop offset="0" stop-color="#97D9FE"/>
<stop offset="1" stop-color="#56BAF2"/>
</linearGradient>
<linearGradient id="paint5_linear" x1="0" y1="0" x2="1" y2="0" gradientUnits="userSpaceOnUse" gradientTransform="matrix(1.5153e-15 10.5179 -24.7467 6.44037e-16 24.7467 -6.44037e-16)">
<stop offset="0" stop-color="#97D9FE"/>
<stop offset="1" stop-color="#56BAF2"/>
</linearGradient>
<path id="path0_fill" d="M 40.9831 20.5007C 40.9831 31.8229 31.8087 41.0014 20.4915 41.0014C 9.17437 41.0014 0 31.8229 0 20.5007C 0 9.17847 9.17437 0 20.4915 0C 31.8087 0 40.9831 9.17847 40.9831 20.5007Z"/>
<path id="path1_stroke_2x" d="M 38.9831 20.5007C 38.9831 30.7192 30.7033 39.0014 20.4915 39.0014L 20.4915 43.0014C 32.9141 43.0014 42.9831 32.9266 42.9831 20.5007L 38.9831 20.5007ZM 20.4915 39.0014C 10.2798 39.0014 2 30.7192 2 20.5007L -2 20.5007C -2 32.9266 8.06896 43.0014 20.4915 43.0014L 20.4915 39.0014ZM 2 20.5007C 2 10.2822 10.2798 2 20.4915 2L 20.4915 -2C 8.06896 -2 -2 8.07474 -2 20.5007L 2 20.5007ZM 20.4915 2C 30.7033 2 38.9831 10.2822 38.9831 20.5007L 42.9831 20.5007C 42.9831 8.07474 32.9141 -2 20.4915 -2L 20.4915 2Z"/>
<path id="path2_fill" d="M 11.9963 3.81484e-05L 24.7467 10.518L 11.9963 7.32261L 11.9963 3.81484e-05Z"/>
<path id="path3_fill" d="M 11.9963 3.81484e-05L 24.7467 10.518L 11.9963 7.32261L 11.9963 3.81484e-05Z"/>
<path id="path4_fill" d="M 11.9963 3.81484e-05L 0 10.5179L 11.9963 7.32261L 11.9963 3.81484e-05Z"/>
<path id="path5_fill" d="M 11.9963 3.81484e-05L 0 10.5179L 11.9963 7.32261L 11.9963 3.81484e-05Z"/>
</defs>
</svg>
