<svg width="42" height="42" viewBox="0 0 42 42" version="1.1" xmlns="http://www.w3.org/2000/svg" xmlns:xlink="http://www.w3.org/1999/xlink">
<title>&#208;&#152;&#208;&#186;&#208;&#190;&#208;&#189;&#208;&#186;&#208;&#176; &#208;&#160;&#208;&#181;&#208;&#191;&#209;&#130;&#208;&#184;&#208;&#187;&#208;&#184;&#208;&#185;</title>
<desc>Created using Figma</desc>
<g id="Canvas" transform="translate(103 -176)">
<g id="&#208;&#152;&#208;&#186;&#208;&#190;&#208;&#189;&#208;&#186;&#208;&#176; &#208;&#160;&#208;&#181;&#208;&#191;&#209;&#130;&#208;&#184;&#208;&#187;&#208;&#184;&#208;&#185;">
<g id="&#208;&#154;&#209;&#128;&#209;&#131;&#208;&#179;2">
<use xlink:href="#path0_fill" transform="translate(-102.966 176.663)"/>
<mask id="mask0_outline_ins">
<use xlink:href="#path0_fill" fill="white" transform="translate(-102.966 176.663)"/>
</mask>
<g mask="url(#mask0_outline_ins)">
<use xlink:href="#path1_stroke_2x" transform="translate(-102.966 176.663)" fill="url(#paint1_linear)"/>
</g>
</g>
<g id="&#208;&#167;&#208;&#181;&#209;&#128;&#208;&#181;&#208;&#191;">
<g id="Ellipse 3">
<use xlink:href="#path2_fill" transform="translate(-90.2153 187.094)" fill="#D65F52"/>
</g>
<g id="Polygon 2">
<use xlink:href="#path3_fill" transform="translate(-88.28 184.863)" fill="#D65F52"/>
</g>
<g id="Ellipse 4">
<use xlink:href="#path4_fill" transform="matrix(0.97079 0.239932 -0.278965 0.960301 -88.4964 193.342)"/>
</g>
<g id="Ellipse 4">
<use xlink:href="#path4_fill" transform="matrix(-0.97079 0.239932 0.278965 0.960301 -75.8983 193.342)"/>
</g>
<g id="Ellipse 4">
<use xlink:href="#path5_fill" transform="matrix(-2.10639e-16 -1 -1 1.79208e-16 -81.3378 201.686)"/>
</g>
<g id="Rectangle">
<use xlink:href="#path6_fill" transform="translate(-86.9576 200.482)" fill="#D65F52"/>
</g>
</g>
</g>
</g>
<defs>
<linearGradient id="paint1_linear" x1="0" y1="0" x2="1" y2="0" gradientUnits="userSpaceOnUse" gradientTransform="matrix(2.50949e-15 41.0014 -40.9831 2.51061e-15 40.9831 -2.51061e-15)">
<stop offset="0.0773481" stop-color="#D65F52"/>
<stop offset="0.994475" stop-color="#9C463D"/>
</linearGradient>
<path id="path0_fill" d="M 40.9831 20.5007C 40.9831 31.8229 31.8087 41.0014 20.4915 41.0014C 9.17437 41.0014 0 31.8229 0 20.5007C 0 9.17847 9.17437 0 20.4915 0C 31.8087 0 40.9831 9.17847 40.9831 20.5007Z"/>
<path id="path1_stroke_2x" d="M 38.9831 20.5007C 38.9831 30.7192 30.7033 39.0014 20.4915 39.0014L 20.4915 43.0014C 32.9141 43.0014 42.9831 32.9266 42.9831 20.5007L 38.9831 20.5007ZM 20.4915 39.0014C 10.2798 39.0014 2 30.7192 2 20.5007L -2 20.5007C -2 32.9266 8.06896 43.0014 20.4915 43.0014L 20.4915 39.0014ZM 2 20.5007C 2 10.2822 10.2798 2 20.4915 2L 20.4915 -2C 8.06896 -2 -2 8.07474 -2 20.5007L 2 20.5007ZM 20.4915 2C 30.7033 2 38.9831 10.2822 38.9831 20.5007L 42.9831 20.5007C 42.9831 8.07474 32.9141 -2 20.4915 -2L 20.4915 2Z"/>
<path id="path2_fill" d="M 15.4825 8.4792C 15.4825 13.1621 12.0166 16.9584 7.74124 16.9584C 3.46587 16.9584 0 13.1621 0 8.4792C 0 3.79627 3.46587 0 7.74124 0C 12.0166 0 15.4825 3.79627 15.4825 8.4792Z"/>
<path id="path3_fill" d="M 5.80593 0L 11.6119 5.35528L 0 5.35528L 5.80593 0Z"/>
<path id="path4_fill" d="M 5.77684 1.34666C 5.77684 2.0904 4.48365 2.69332 2.88842 2.69332C 1.29319 2.69332 0 2.0904 0 1.34666C 0 0.602921 1.29319 0 2.88842 0C 4.48365 0 5.77684 0.602921 5.77684 1.34666Z"/>
<path id="path5_fill" d="M 3.88122 1.05196C 3.88122 1.63294 3.01238 2.10392 1.94061 2.10392C 0.868841 2.10392 0 1.63294 0 1.05196C 0 0.470978 0.868841 0 1.94061 0C 3.01238 0 3.88122 0.470978 3.88122 1.05196Z"/>
<path id="path6_fill" d="M 2.75618e-05 0L 9.19276 0L 7.3864 6.24783L 1.58047 6.24783L 2.75618e-05 0Z"/>
</defs>
</svg>
