<svg width="42" height="42" viewBox="0 0 42 42" version="1.1" xmlns="http://www.w3.org/2000/svg" xmlns:xlink="http://www.w3.org/1999/xlink">
<title>&#208;&#151;&#208;&#190;&#208;&#189;&#208;&#176; &#208;&#178;&#209;&#139;&#209;&#129;&#208;&#176;&#208;&#180;&#208;&#186;&#208;&#184;</title>
<desc>Created using Figma</desc>
<g id="Canvas" transform="translate(-134 -51)">
<g id="&#208;&#151;&#208;&#190;&#208;&#189;&#208;&#176; &#208;&#178;&#209;&#139;&#209;&#129;&#208;&#176;&#208;&#180;&#208;&#186;&#208;&#184;">
<g id="&#208;&#154;&#209;&#128;&#209;&#131;&#208;&#179;">
<use xlink:href="#path0_fill" transform="translate(134.736 51.3155)" fill="#131313"/>
<mask id="mask0_outline_ins">
<use xlink:href="#path0_fill" fill="white" transform="translate(134.736 51.3155)"/>
</mask>
<g mask="url(#mask0_outline_ins)">
<use xlink:href="#path1_stroke_2x" transform="translate(134.736 51.3155)" fill="url(#paint1_radial)"/>
</g>
</g>
<g id="&#208;&#151;&#208;&#178;&#208;&#181;&#208;&#183;&#208;&#180;&#208;&#176;">
<use xlink:href="#path2_fill" transform="translate(140.591 57.1728)" fill="#E9A844"/>
</g>
</g>
</g>
<defs>
<radialGradient id="paint1_radial" cx="0.5" cy="0.5" r="0.5" gradientUnits="userSpaceOnUse" gradientTransform="matrix(1.17094 82.0027 -81.9661 1.17147 60.3036 -41.5871)">
<stop offset="0" stop-color="#E9A844"/>
<stop offset="1" stop-color="#CB6E24"/>
</radialGradient>
<path id="path0_fill" d="M 40.9831 20.5007C 40.9831 31.8229 31.8087 41.0014 20.4915 41.0014C 9.17437 41.0014 0 31.8229 0 20.5007C 0 9.17847 9.17437 0 20.4915 0C 31.8087 0 40.9831 9.17847 40.9831 20.5007Z"/>
<path id="path1_stroke_2x" d="M 39.9831 20.5007C 39.9831 31.271 31.256 40.0014 20.4915 40.0014L 20.4915 42.0014C 32.3614 42.0014 41.9831 32.3748 41.9831 20.5007L 39.9831 20.5007ZM 20.4915 40.0014C 9.72708 40.0014 1 31.271 1 20.5007L -1 20.5007C -1 32.3748 8.62166 42.0014 20.4915 42.0014L 20.4915 40.0014ZM 1 20.5007C 1 9.73033 9.72708 1 20.4915 1L 20.4915 -1C 8.62166 -1 -1 8.62661 -1 20.5007L 1 20.5007ZM 20.4915 1C 31.256 1 39.9831 9.73033 39.9831 20.5007L 41.9831 20.5007C 41.9831 8.62661 32.3614 -1 20.4915 -1L 20.4915 1Z"/>
<path id="path2_fill" d="M 14.6368 0L 17.923 10.1183L 28.5572 10.1183L 19.9539 16.3718L 23.2401 26.4901L 14.6368 20.2366L 6.03351 26.4901L 9.31968 16.3718L 0.716376 10.1183L 11.3506 10.1183L 14.6368 0Z"/>
</defs>
</svg>
