<svg xmlns="http://www.w3.org/2000/svg" xmlns:xlink="http://www.w3.org/1999/xlink" style="isolation:isolate" viewBox="0 0 45 45" width="45" height="45"><defs><clipPath id="_clipPath_t8If6K7qD7YoGRpt4PaH5sdkwMbssrex"><rect width="45" height="45"/></clipPath></defs><g clip-path="url(#_clipPath_t8If6K7qD7YoGRpt4PaH5sdkwMbssrex)"><linearGradient id="_lgradient_1" x1="50%" y1="0%" x2="50.000000000000014%" y2="100%"><stop offset="1.3043478260869565%" stop-opacity="1" style="stop-color:rgb(148,255,210)"/><stop offset="98.69565217391305%" stop-opacity="1" style="stop-color:rgb(106,218,171)"/></linearGradient><path d=" M 0 22.5 C 0 10.082 10.082 0 22.5 0 C 34.918 0 45 10.082 45 22.5 C 45 34.918 34.918 45 22.5 45 C 10.082 45 0 34.918 0 22.5 Z " fill="url(#_lgradient_1)"/><path d=" M 2 22.5 C 2 11.186 11.186 2 22.5 2 C 33.814 2 43 11.186 43 22.5 C 43 33.814 33.814 43 22.5 43 C 11.186 43 2 33.814 2 22.5 Z " fill="rgb(0,0,0)"/><g id="Group"><path d=" M 15.333 11.184 L 29.667 11.184 C 30.083 11.184 30.421 11.522 30.421 11.938 L 30.421 33.061 C 30.421 33.478 30.083 33.816 29.667 33.816 L 15.333 33.816 C 14.917 33.816 14.579 33.478 14.579 33.061 L 14.579 11.938 C 14.579 11.522 14.917 11.184 15.333 11.184 Z " fill-rule="evenodd" fill="rgb(86,242,233)" vector-effect="non-scaling-stroke" stroke-width="1" stroke="rgb(86,242,233)" stroke-opacity="100" stroke-linejoin="miter" stroke-linecap="square" stroke-miterlimit="3"/><path d=" M 24.073 20.841 L 22.5 16 L 20.927 20.841 L 15.837 20.841 L 19.955 23.833 L 18.382 28.673 L 22.5 25.682 L 26.618 28.673 L 25.045 23.833 L 29.163 20.841 L 24.073 20.841 Z " fill="rgb(0,0,0)"/></g></g></svg>