<svg width="57" height="57" viewBox="0 0 57 57" version="1.1" xmlns="http://www.w3.org/2000/svg" xmlns:xlink="http://www.w3.org/1999/xlink">
<title>&#208;&#144;&#208;&#186;&#209;&#130;&#208;&#184;&#208;&#178;&#208;&#189;&#208;&#190;</title>
<desc>Created using Figma</desc>
<g id="Canvas" transform="translate(138 1989)">
<g id="&#208;&#144;&#208;&#186;&#209;&#130;&#208;&#184;&#208;&#178;&#208;&#189;&#208;&#190;">
<g id="Ellipse">
<use xlink:href="#path0_fill" transform="translate(-138 -1989)"/>
<mask id="mask0_outline_ins">
<use xlink:href="#path0_fill" fill="white" transform="translate(-138 -1989)"/>
</mask>
<g mask="url(#mask0_outline_ins)">
<use xlink:href="#path1_stroke_2x" transform="translate(-138 -1989)" fill="url(#paint1_linear)"/>
</g>
</g>
<g id="&#208;&#154;&#208;&#176;&#209;&#128;&#209;&#130;&#208;&#190;&#209;&#135;&#208;&#186;&#208;&#176;">
<g id="Subtract">
<use xlink:href="#path2_fill" transform="translate(-121 -1977)" fill="#56F2E9"/>
<mask id="mask1_outline_ins">
<use xlink:href="#path2_fill" fill="white" transform="translate(-121 -1977)"/>
</mask>
<g mask="url(#mask1_outline_ins)">
<use xlink:href="#path3_stroke_2x" transform="translate(-121 -1977)" fill="#56F2BA"/>
</g>
</g>
</g>
</g>
</g>
<defs>
<linearGradient id="paint1_linear" x1="0" y1="0" x2="1" y2="0" gradientUnits="userSpaceOnUse" gradientTransform="matrix(3.49024e-15 57 -57 3.49024e-15 57 -3.49024e-15)">
<stop offset="0" stop-color="#94FFD2"/>
<stop offset="1" stop-color="#3BB380"/>
</linearGradient>
<path id="path0_fill" d="M 57 28.5C 57 44.2401 44.2401 57 28.5 57C 12.7599 57 0 44.2401 0 28.5C 0 12.7599 12.7599 0 28.5 0C 44.2401 0 57 12.7599 57 28.5Z"/>
<path id="path1_stroke_2x" d="M 55 28.5C 55 43.1355 43.1355 55 28.5 55L 28.5 59C 45.3447 59 59 45.3447 59 28.5L 55 28.5ZM 28.5 55C 13.8645 55 2 43.1355 2 28.5L -2 28.5C -2 45.3447 11.6553 59 28.5 59L 28.5 55ZM 2 28.5C 2 13.8645 13.8645 2 28.5 2L 28.5 -2C 11.6553 -2 -2 11.6553 -2 28.5L 2 28.5ZM 28.5 2C 43.1355 2 55 13.8645 55 28.5L 59 28.5C 59 11.6553 45.3447 -2 28.5 -2L 28.5 2Z"/>
<path id="path2_fill" fill-rule="evenodd" d="M 2 0C 0.895432 0 0 0.895386 0 2L 0 30C 0 31.1046 0.895432 32 2 32L 21 32C 22.1046 32 23 31.1046 23 30L 23 2C 23 0.895386 22.1046 0 21 0L 2 0ZM 13.1839 14.1824L 11.5 9L 9.81615 14.1824L 4.36707 14.1824L 8.77547 17.3853L 7.09161 22.5676L 11.5 19.3647L 15.9084 22.5676L 14.2245 17.3853L 18.6329 14.1824L 13.1839 14.1824Z"/>
<path id="path3_stroke_2x" d="M 11.5 9L 12.4511 8.69098L 11.5 5.76393L 10.5489 8.69098L 11.5 9ZM 13.1839 14.1824L 12.2328 14.4914L 12.4573 15.1824L 13.1839 15.1824L 13.1839 14.1824ZM 9.81615 14.1824L 9.81615 15.1824L 10.5427 15.1824L 10.7672 14.4914L 9.81615 14.1824ZM 4.36707 14.1824L 4.36707 13.1824L 1.28939 13.1824L 3.77929 14.9914L 4.36707 14.1824ZM 8.77547 17.3853L 9.72652 17.6943L 9.95104 17.0033L 9.36325 16.5762L 8.77547 17.3853ZM 7.09161 22.5676L 6.14056 22.2586L 5.1895 25.1857L 7.6794 23.3766L 7.09161 22.5676ZM 11.5 19.3647L 12.0878 18.5557L 11.5 18.1287L 10.9122 18.5557L 11.5 19.3647ZM 15.9084 22.5676L 15.3206 23.3766L 17.8105 25.1857L 16.8594 22.2586L 15.9084 22.5676ZM 14.2245 17.3853L 13.6367 16.5762L 13.049 17.0033L 13.2735 17.6943L 14.2245 17.3853ZM 18.6329 14.1824L 19.2207 14.9914L 21.7106 13.1824L 18.6329 13.1824L 18.6329 14.1824ZM 1 2C 1 1.44769 1.4477 1 2 1L 2 -1C 0.343162 -1 -1 0.343086 -1 2L 1 2ZM 1 30L 1 2L -1 2L -1 30L 1 30ZM 2 31C 1.4477 31 1 30.5523 1 30L -1 30C -1 31.6569 0.343162 33 2 33L 2 31ZM 21 31L 2 31L 2 33L 21 33L 21 31ZM 22 30C 22 30.5523 21.5523 31 21 31L 21 33C 22.6568 33 24 31.6569 24 30L 22 30ZM 22 2L 22 30L 24 30L 24 2L 22 2ZM 21 1C 21.5523 1 22 1.44769 22 2L 24 2C 24 0.343086 22.6568 -1 21 -1L 21 1ZM 2 1L 21 1L 21 -1L 2 -1L 2 1ZM 10.5489 9.30902L 12.2328 14.4914L 14.1349 13.8734L 12.4511 8.69098L 10.5489 9.30902ZM 10.7672 14.4914L 12.4511 9.30902L 10.5489 8.69098L 8.86509 13.8734L 10.7672 14.4914ZM 4.36707 15.1824L 9.81615 15.1824L 9.81615 13.1824L 4.36707 13.1824L 4.36707 15.1824ZM 9.36325 16.5762L 4.95486 13.3734L 3.77929 14.9914L 8.18768 18.1943L 9.36325 16.5762ZM 8.04267 22.8766L 9.72652 17.6943L 7.82441 17.0762L 6.14056 22.2586L 8.04267 22.8766ZM 10.9122 18.5557L 6.50383 21.7586L 7.6794 23.3766L 12.0878 20.1738L 10.9122 18.5557ZM 16.4962 21.7586L 12.0878 18.5557L 10.9122 20.1738L 15.3206 23.3766L 16.4962 21.7586ZM 13.2735 17.6943L 14.9573 22.8766L 16.8594 22.2586L 15.1756 17.0762L 13.2735 17.6943ZM 18.0451 13.3734L 13.6367 16.5762L 14.8123 18.1943L 19.2207 14.9914L 18.0451 13.3734ZM 13.1839 15.1824L 18.6329 15.1824L 18.6329 13.1824L 13.1839 13.1824L 13.1839 15.1824Z"/>
</defs>
</svg>
