<?xml version="1.0" standalone="no"?><svg xmlns="http://www.w3.org/2000/svg" xmlns:xlink="http://www.w3.org/1999/xlink" style="isolation:isolate" viewBox="0 0 45 45" width="45" height="45"><defs><clipPath id="_clipPath_JA9LFanmWGpRCU05MrYdiMPT2eHlr0CW"><rect width="45" height="45"/></clipPath></defs><g clip-path="url(#_clipPath_JA9LFanmWGpRCU05MrYdiMPT2eHlr0CW)"><g id="icon_artifacts"><linearGradient id="_lgradient_5" x1="48.810916179337234%" y1="0.8016569200779811%" x2="48.81091617933724%" y2="98.30653021442497%"><stop offset="0.43478260869565216%" stop-opacity="1" style="stop-color:rgb(148,255,210)"/><stop offset="100%" stop-opacity="1" style="stop-color:rgb(59,178,128)"/></linearGradient><path d=" M 44 22.5 C 44 34.374 34.374 44 22.5 44 C 10.626 44 1 34.374 1 22.5 C 1 10.626 10.626 1 22.5 1 C 34.374 1 44 10.626 44 22.5 Z " fill="rgb(0,0,0)" vector-effect="non-scaling-stroke" stroke-width="2.045" stroke="url(#_lgradient_5)" stroke-linejoin="miter" stroke-linecap="butt" stroke-miterlimit="4"/><path d=" M 15.333 10.807 L 29.667 10.807 C 30.083 10.807 30.421 11.145 30.421 11.561 L 30.421 32.684 C 30.421 33.101 30.083 33.439 29.667 33.439 L 15.333 33.439 C 14.917 33.439 14.579 33.101 14.579 32.684 L 14.579 11.561 C 14.579 11.145 14.917 10.807 15.333 10.807 Z " fill-rule="evenodd" fill="rgb(86,242,233)" vector-effect="non-scaling-stroke" stroke-width="1" stroke="rgb(86,242,233)" stroke-linejoin="miter" stroke-linecap="square" stroke-miterlimit="3"/><path d=" M 23.979 20.553 L 22.5 16 L 21.021 20.553 L 16.234 20.553 L 20.106 23.367 L 18.627 27.919 L 22.5 25.106 L 26.373 27.919 L 24.894 23.367 L 28.766 20.553 L 23.979 20.553 Z " fill="rgb(0,0,0)"/></g></g></svg>