<?xml version="1.0" standalone="no"?><!-- Generator: Gravit.io --><svg xmlns="http://www.w3.org/2000/svg" xmlns:xlink="http://www.w3.org/1999/xlink" style="isolation:isolate" viewBox="0 0 45 45" width="45" height="45"><defs><clipPath id="_clipPath_rP1bZOuVsCxZwR5F8j4NlPYbdYkmLJpd"><rect width="45" height="45"/></clipPath></defs><g clip-path="url(#_clipPath_rP1bZOuVsCxZwR5F8j4NlPYbdYkmLJpd)"><linearGradient id="_lgradient_0" x1="103.57142857142858%" y1="-3.571428571428572%" x2="103.57142857142856%" y2="103.57142857142858%"><stop offset="0%" stop-opacity="1" style="stop-color:rgb(233,168,68)"/><stop offset="100%" stop-opacity="1" style="stop-color:rgb(214,95,82)"/></linearGradient><path d=" M 0 22.5 C 0 10.082 10.082 0 22.5 0 C 34.918 0 45 10.082 45 22.5 C 45 34.918 34.918 45 22.5 45 C 10.082 45 0 34.918 0 22.5 Z " fill="url(#_lgradient_0)"/><path d=" M 3 22.5 C 3 11.738 11.738 3 22.5 3 C 33.262 3 42 11.738 42 22.5 C 42 33.262 33.262 42 22.5 42 C 11.738 42 3 33.262 3 22.5 Z " fill="rgb(0,0,0)"/><linearGradient id="_lgradient_1" x1="100%" y1="-21.122944449329882%" x2="99.99999999999997%" y2="121.4792121706187%"><stop offset="0%" stop-opacity="1" style="stop-color:rgb(214,95,82)"/><stop offset="100%" stop-opacity="1" style="stop-color:rgb(233,168,68)"/></linearGradient><path d=" M 20.741 32.908 C 18.55 32.664 16.777 31.807 15.422 30.338 C 13.807 28.566 13 26.138 13 23.053 L 13 21.802 C 13 19.833 13.373 18.098 14.12 16.598 C 14.867 15.098 15.932 13.95 17.315 13.153 C 18.337 12.561 19.479 12.187 20.741 12.029 L 20.741 7.5 L 24.617 7.5 L 24.617 12.17 C 26.058 12.456 27.288 13.014 28.305 13.842 C 29.86 15.108 30.758 16.884 31 19.172 L 26.458 19.172 C 26.347 17.85 25.949 16.894 25.262 16.303 C 24.586 15.703 23.552 15.403 22.159 15.403 C 20.645 15.403 19.51 15.909 18.753 16.922 C 18.006 17.925 17.622 19.486 17.602 21.605 L 17.602 23.152 C 17.602 25.364 17.96 26.981 18.677 28.003 C 19.404 29.025 20.544 29.536 22.098 29.536 C 23.501 29.536 24.546 29.241 25.232 28.65 C 25.929 28.05 26.327 27.127 26.428 25.88 L 30.97 25.88 C 30.798 28.083 29.92 29.817 28.336 31.083 C 27.31 31.907 26.07 32.463 24.617 32.751 L 24.617 37.5 L 20.741 37.5 L 20.741 32.908 Z " fill="url(#_lgradient_1)"/></g></svg>