<svg xmlns="http://www.w3.org/2000/svg" xmlns:xlink="http://www.w3.org/1999/xlink" style="isolation:isolate" viewBox="0 0 64 64" width="64" height="64"><defs><clipPath id="_clipPath_tzIw1C3wT8luoSTNzAAUmPIJNu2PhwLu"><rect width="64" height="64"/></clipPath></defs><g clip-path="url(#_clipPath_tzIw1C3wT8luoSTNzAAUmPIJNu2PhwLu)"><linearGradient id="_lgradient_0" x1="100%" y1="0%" x2="100%" y2="100%"><stop offset="0%" stop-opacity="1" style="stop-color:rgb(86,186,242)"/><stop offset="100%" stop-opacity="1" style="stop-color:rgb(42,117,159)"/></linearGradient><path d=" M 0 32 C 0 14.339 14.339 0 32 0 C 49.661 0 64 14.339 64 32 C 64 49.661 49.661 64 32 64 C 14.339 64 0 49.661 0 32 Z " fill="url(#_lgradient_0)"/><path d=" M 2 32 C 2 15.443 15.443 2 32 2 C 48.557 2 62 15.443 62 32 C 62 48.557 48.557 62 32 62 C 15.443 62 2 48.557 2 32 Z " fill="rgb(0,0,0)"/><linearGradient id="_lgradient_1" x1="0%" y1="0%" x2="-1.8369701987210294e-14%" y2="99.99999999999999%"><stop offset="0%" stop-opacity="1" style="stop-color:rgb(151,217,254)"/><stop offset="100%" stop-opacity="1" style="stop-color:rgb(86,186,242)"/></linearGradient><path d=" M 32 34.221 L 12.678 39.209 L 32 22.791 L 51.322 39.209 L 32 34.221 Z " fill="url(#_lgradient_1)"/></g></svg>