<svg width="45" height="45" viewBox="0 0 45 45" version="1.1" xmlns="http://www.w3.org/2000/svg" xmlns:xlink="http://www.w3.org/1999/xlink">
<title>&#208;&#152;&#208;&#186;&#208;&#190;&#208;&#189;&#208;&#186;&#208;&#176; &#208;&#161;&#209;&#128;&#208;&#176;&#208;&#182;&#208;&#181;&#208;&#189;&#208;&#184;&#209;&#143;</title>
<desc>Created using Figma</desc>
<g id="Canvas" transform="translate(668 1760)">
<g id="&#208;&#152;&#208;&#186;&#208;&#190;&#208;&#189;&#208;&#186;&#208;&#176; &#208;&#161;&#209;&#128;&#208;&#176;&#208;&#182;&#208;&#181;&#208;&#189;&#208;&#184;&#209;&#143;">
<g id="&#208;&#154;&#209;&#128;&#209;&#131;&#208;&#179;2">
<use xlink:href="#path0_fill" transform="translate(-668 -1760)"/>
<mask id="mask0_outline_ins">
<use xlink:href="#path0_fill" fill="white" transform="translate(-668 -1760)"/>
</mask>
<g mask="url(#mask0_outline_ins)">
<use xlink:href="#path1_stroke_2x" transform="translate(-668 -1760)" fill="url(#paint1_linear)"/>
</g>
</g>
<g id="Line 2">
<use xlink:href="#path2_stroke" transform="matrix(0.707107 0.707107 -0.70711 0.707104 -655 -1745.94)" fill="#E9A844"/>
</g>
<g id="Line 2">
<use xlink:href="#path3_stroke" transform="matrix(-0.707107 0.707107 -0.70711 -0.707104 -636.567 -1735.15)" fill="#E9A844"/>
</g>
<g id="Line 2">
<use xlink:href="#path2_stroke" transform="matrix(-0.697579 0.716508 -0.716505 -0.697582 -638.101 -1748)" fill="#E9A844"/>
</g>
<g id="Line 2">
<use xlink:href="#path3_stroke" transform="matrix(-0.716508 -0.697579 0.697576 -0.716511 -648.643 -1729.42)" fill="#E9A844"/>
</g>
</g>
</g>
<defs>
<linearGradient id="paint1_linear" x1="0" y1="0" x2="1" y2="0" gradientUnits="userSpaceOnUse" gradientTransform="matrix(2.75546e-15 45 -45 2.75546e-15 45 -2.75546e-15)">
<stop offset="0.0110497" stop-color="#E9A844"/>
<stop offset="1" stop-color="#CB9138"/>
</linearGradient>
<path id="path0_fill" d="M 45 22.5C 45 34.9264 34.9264 45 22.5 45C 10.0736 45 0 34.9264 0 22.5C 0 10.0736 10.0736 0 22.5 0C 34.9264 0 45 10.0736 45 22.5Z"/>
<path id="path1_stroke_2x" d="M 43 22.5C 43 33.8218 33.8218 43 22.5 43L 22.5 47C 36.031 47 47 36.031 47 22.5L 43 22.5ZM 22.5 43C 11.1782 43 2 33.8218 2 22.5L -2 22.5C -2 36.031 8.96902 47 22.5 47L 22.5 43ZM 2 22.5C 2 11.1782 11.1782 2 22.5 2L 22.5 -2C 8.96902 -2 -2 8.96902 -2 22.5L 2 22.5ZM 22.5 2C 33.8218 2 43 11.1782 43 22.5L 47 22.5C 47 8.96902 36.031 -2 22.5 -2L 22.5 2Z"/>
<path id="path2_stroke" d="M 0 -1.11022e-16L 27.0921 -1.11022e-16L 27.0921 -2L 0 -2L 0 -1.11022e-16Z"/>
<path id="path3_stroke" d="M 0 0L 8.66994 0L 8.66994 -2L 0 -2L 0 0Z"/>
</defs>
</svg>
