<svg width="45" height="45" xmlns="http://www.w3.org/2000/svg" xmlns:xlink="http://www.w3.org/1999/xlink"><g transform="translate(328 1912)"><use xlink:href="#path0_fill" transform="translate(-328 -1912)"/><mask id="a"><use xlink:href="#path0_fill" fill="#fff" transform="translate(-328 -1912)"/></mask><g mask="url(#a)"><use xlink:href="#path1_stroke_2x" transform="translate(-328 -1912)" fill="#D36FFF"/></g></g><use xlink:href="#path2_fill" transform="translate(14 7)" fill="#EEC7FF"/><use xlink:href="#path2_fill" transform="matrix(-1 0 0 1 31 7)" fill="#D36FFF"/><use xlink:href="#path2_fill" transform="matrix(-1 0 0 -1 31 39)" fill="#8B37B0"/><use xlink:href="#path2_fill" transform="matrix(1 0 0 -1 14 39)" fill="#B846EB"/><defs><path id="path0_fill" d="M45 22.5C45 34.926 34.926 45 22.5 45S0 34.926 0 22.5 10.074 0 22.5 0 45 10.074 45 22.5z"/><path id="path1_stroke_2x" d="M43 22.5C43 33.822 33.822 43 22.5 43v4C36.031 47 47 36.031 47 22.5h-4zM22.5 43C11.178 43 2 33.822 2 22.5h-4C-2 36.031 8.969 47 22.5 47v-4zM2 22.5C2 11.178 11.178 2 22.5 2v-4C8.969-2-2 8.969-2 22.5h4zM22.5 2C33.822 2 43 11.178 43 22.5h4C47 8.969 36.031-2 22.5-2v4z"/><path id="path2_fill" d="M8.5 0v16H0L8.5 0z"/></defs></svg>