<?xml version="1.0" standalone="no"?><svg xmlns="http://www.w3.org/2000/svg" xmlns:xlink="http://www.w3.org/1999/xlink" style="isolation:isolate" viewBox="0 0 45 45" width="45" height="45"><defs><clipPath id="_clipPath_dIWKkWtmQ3wcqfBPgVCfHkO6rHB4wyJA"><rect width="45" height="45"/></clipPath></defs><g clip-path="url(#_clipPath_dIWKkWtmQ3wcqfBPgVCfHkO6rHB4wyJA)"><path d=" M 44 22.5 C 44 34.374 34.374 44 22.5 44 C 10.626 44 1 34.374 1 22.5 C 1 10.626 10.626 1 22.5 1 C 34.374 1 44 10.626 44 22.5 Z " fill="rgb(0,0,0)" vector-effect="non-scaling-stroke" stroke-width="2.081" stroke="rgb(211,111,255)" stroke-linejoin="miter" stroke-linecap="butt" stroke-miterlimit="4"/><g id="icon_cristal"><path d=" M 22.5 7.689 L 22.5 22.978 L 14.378 22.978 L 22.5 7.689 Z " fill="rgb(238,199,255)"/><path d=" M 22.5 7.689 L 22.5 22.978 L 30.622 22.978 C 27.771 17.878 25.074 12.792 22.5 7.689 Z " fill="rgb(211,111,255)"/><path d=" M 22.5 38.267 L 22.5 22.978 L 30.622 22.978 L 22.5 38.267 Z " fill="rgb(139,55,176)"/><path d=" M 22.5 38.267 L 22.5 22.978 L 14.378 22.978 L 22.5 38.267 Z " fill="rgb(184,70,235)"/></g></g></svg>