<?xml version="1.0" standalone="no"?><svg xmlns="http://www.w3.org/2000/svg" xmlns:xlink="http://www.w3.org/1999/xlink" style="isolation:isolate" viewBox="0 0 45 45" width="45" height="45"><defs><clipPath id="_clipPath_XfUret7l1Js4rFBVEOGxOY8LCjmGLnV0"><rect width="45" height="45"/></clipPath></defs><g clip-path="url(#_clipPath_XfUret7l1Js4rFBVEOGxOY8LCjmGLnV0)"><path d=" M 0 22.5 C 0 10.082 10.082 0 22.5 0 C 34.918 0 45 10.082 45 22.5 C 45 34.918 34.918 45 22.5 45 C 10.082 45 0 34.918 0 22.5 Z " fill="rgb(214,95,82)"/><path d=" M 2 22.5 C 2 11.186 11.186 2 22.5 2 C 33.814 2 43 11.186 43 22.5 C 43 33.814 33.814 43 22.5 43 C 11.186 43 2 33.814 2 22.5 Z " fill="rgb(0,0,0)"/><g id="icon_honor"><path d=" M 22.5 12.467 L 22.5 24.457 L 8.167 28.711 L 22.5 12.467 Z " fill="rgb(252,204,129)"/><path d=" M 22.5 12.467 L 22.5 24.457 L 36.833 28.711 L 22.5 12.467 Z " fill="rgb(214,122,82)"/></g></g></svg>