<svg width="45" height="45" xmlns="http://www.w3.org/2000/svg" xmlns:xlink="http://www.w3.org/1999/xlink"><g transform="translate(451 1912)"><use xlink:href="#path0_fill" transform="translate(-451 -1912)"/><mask id="a"><use xlink:href="#path0_fill" fill="#fff" transform="translate(-451 -1912)"/></mask><g mask="url(#a)"><use xlink:href="#path1_stroke_2x" transform="translate(-451 -1912)" fill="#E9A844"/></g></g><g transform="translate(11 10)"><use xlink:href="#path2_fill" fill="url(#paint2_linear)"/><use xlink:href="#path3_fill" fill="url(#paint3_linear)"/></g><defs><linearGradient id="paint2_linear" x2="1" gradientUnits="userSpaceOnUse" gradientTransform="matrix(0 11 -11 0 17 0)"><stop offset="0" stop-color="#FCCD83"/><stop offset="1" stop-color="#DB9B37"/></linearGradient><linearGradient id="paint3_linear" x2="1" gradientUnits="userSpaceOnUse" gradientTransform="matrix(0 11 -11 0 17 0)"><stop offset="0" stop-color="#FCCD83"/><stop offset="1" stop-color="#DB9B37"/></linearGradient><path id="path0_fill" d="M45 22.5C45 34.926 34.926 45 22.5 45S0 34.926 0 22.5 10.074 0 22.5 0 45 10.074 45 22.5z"/><path id="path1_stroke_2x" d="M43 22.5C43 33.822 33.822 43 22.5 43v4C36.031 47 47 36.031 47 22.5h-4zM22.5 43C11.178 43 2 33.822 2 22.5h-4C-2 36.031 8.969 47 22.5 47v-4zM2 22.5C2 11.178 11.178 2 22.5 2v-4C8.969-2-2 8.969-2 22.5h4zM22.5 2C33.822 2 43 11.178 43 22.5h4C47 8.969 36.031-2 22.5-2v4z"/><path id="path2_fill" d="M11.5 11a5.5 5.5 0 1 0 0-11 5.5 5.5 0 0 0 0 11z"/><path id="path3_fill" d="M21.297 23.258C22 22.53 22 21.123 22 18.457 22 15.443 17.075 13 11 13S0 15.443 0 18.457c0 2.102 0 3.395.629 4.189C1.633 23.914 4.238 23.914 11 23.914c6.602 0 9.242.437 10.297-.656z"/></defs></svg>