<?xml version="1.0" standalone="no"?><svg xmlns="http://www.w3.org/2000/svg" xmlns:xlink="http://www.w3.org/1999/xlink" style="isolation:isolate" viewBox="0 0 45 45" width="45" height="45"><defs><clipPath id="_clipPath_DJNZjl9fGFAMzLvjswK6EhiehlnBvT9g"><rect width="45" height="45"/></clipPath></defs><g clip-path="url(#_clipPath_DJNZjl9fGFAMzLvjswK6EhiehlnBvT9g)"><path d=" M 0 22.5 C 0 10.082 10.082 0 22.5 0 C 34.918 0 45 10.082 45 22.5 C 45 34.918 34.918 45 22.5 45 C 10.082 45 0 34.918 0 22.5 Z " fill="rgb(233,168,68)"/><path d=" M 2 22.5 C 2 11.186 11.186 2 22.5 2 C 33.814 2 43 11.186 43 22.5 C 43 33.814 33.814 43 22.5 43 C 11.186 43 2 33.814 2 22.5 Z " fill="rgb(0,0,0)"/><g id="icon_human"><linearGradient id="_lgradient_0" x1="50.01197866010645%" y1="-1.0584129526861386%" x2="48.63443274786897%" y2="120.65907660621313%"><stop offset="0.8695652173913043%" stop-opacity="1" style="stop-color:rgb(252,205,131)"/><stop offset="98.26086956521739%" stop-opacity="1" style="stop-color:rgb(219,155,55)"/></linearGradient><path d=" M 22.5 21.067 C 25.403 21.067 27.756 18.714 27.756 15.811 C 27.756 12.909 25.403 10.556 22.5 10.556 C 19.597 10.556 17.244 12.909 17.244 15.811 C 17.244 18.714 19.597 21.067 22.5 21.067 Z " fill="url(#_lgradient_0)"/><path d=" M 32.339 32.78 C 33.011 32.084 33.011 30.74 33.011 28.192 C 33.011 25.312 28.305 22.978 22.5 22.978 C 16.695 22.978 11.989 25.312 11.989 28.192 C 11.989 30.201 11.989 31.436 12.59 32.195 C 13.549 33.407 16.039 33.407 22.5 33.407 C 28.809 33.407 31.331 33.824 32.339 32.78 Z " fill="rgb(219,155,55)"/></g></g></svg>