<?xml version="1.0" standalone="no"?><svg xmlns="http://www.w3.org/2000/svg" xmlns:xlink="http://www.w3.org/1999/xlink" style="isolation:isolate" viewBox="0 0 45 45" width="45" height="45"><defs><clipPath id="_clipPath_0QYMRORYMHX0czMCVe1kjvDjNN5610Aq"><rect width="45" height="45"/></clipPath></defs><g clip-path="url(#_clipPath_0QYMRORYMHX0czMCVe1kjvDjNN5610Aq)"><path d=" M 44 22.5 C 44 34.374 34.374 44 22.5 44 C 10.626 44 1 34.374 1 22.5 C 1 10.626 10.626 1 22.5 1 C 34.374 1 44 10.626 44 22.5 Z " fill="rgb(0,0,0)" vector-effect="non-scaling-stroke" stroke-width="2.081" stroke="rgb(233,168,68)" stroke-linejoin="miter" stroke-linecap="butt" stroke-miterlimit="4"/><g id="icon_human"><linearGradient id="_lgradient_3" x1="50.01197866010645%" y1="-1.0584129526861386%" x2="48.63443274786897%" y2="120.65907660621313%"><stop offset="0.8695652173913043%" stop-opacity="1" style="stop-color:rgb(252,205,131)"/><stop offset="98.26086956521739%" stop-opacity="1" style="stop-color:rgb(219,155,55)"/></linearGradient><path d=" M 22.022 21.067 C 24.925 21.067 27.278 18.714 27.278 15.811 C 27.278 12.909 24.925 10.556 22.022 10.556 C 19.12 10.556 16.767 12.909 16.767 15.811 C 16.767 18.714 19.12 21.067 22.022 21.067 Z " fill="url(#_lgradient_3)"/><path d=" M 31.862 32.78 C 32.533 32.084 32.533 30.74 32.533 28.192 C 32.533 25.312 27.827 22.978 22.022 22.978 C 16.217 22.978 11.511 25.312 11.511 28.192 C 11.511 30.201 11.511 31.436 12.112 32.195 C 13.072 33.407 15.561 33.407 22.022 33.407 C 28.331 33.407 30.853 33.824 31.862 32.78 Z " fill="rgb(219,155,55)"/></g></g></svg>