<?xml version="1.0" standalone="no"?><svg xmlns="http://www.w3.org/2000/svg" xmlns:xlink="http://www.w3.org/1999/xlink" style="isolation:isolate" viewBox="0 0 45 45" width="45" height="45"><defs><clipPath id="_clipPath_aSzrw2hX1wl2M1XiaoItHuOSyF0DlD8S"><rect width="45" height="45"/></clipPath></defs><g clip-path="url(#_clipPath_aSzrw2hX1wl2M1XiaoItHuOSyF0DlD8S)"><path d=" M 0 22.5 C 0 10.082 10.082 0 22.5 0 C 34.918 0 45 10.082 45 22.5 C 45 34.918 34.918 45 22.5 45 C 10.082 45 0 34.918 0 22.5 Z " fill="rgb(86,186,242)"/><path d=" M 2 22.5 C 2 11.186 11.186 2 22.5 2 C 33.814 2 43 11.186 43 22.5 C 43 33.814 33.814 43 22.5 43 C 11.186 43 2 33.814 2 22.5 Z " fill="rgb(0,0,0)"/><g id="icon_metal"><path d=" M 9.122 18.678 L 29.667 29.667 L 29.667 34.444 L 9.281 22.781 L 9.122 18.678 Z " fill="rgb(156,156,156)"/><path d=" M 29.667 29.667 L 37.311 21.544 L 37 26 L 29.667 34.444 L 29.667 29.667 Z " fill="rgb(77,77,77)"/><path d=" M 9.122 18.678 L 17 13 L 37.311 21.544 L 29.667 29.667 L 9.122 18.678 Z " fill="rgb(224,224,224)"/></g></g></svg>