<svg width="45" height="45" xmlns="http://www.w3.org/2000/svg" xmlns:xlink="http://www.w3.org/1999/xlink"><g transform="translate(391 1912)"><use xlink:href="#path0_fill" transform="translate(-391 -1912)"/><mask id="a"><use xlink:href="#path0_fill" fill="#fff" transform="translate(-391 -1912)"/></mask><g mask="url(#a)"><use xlink:href="#path1_stroke_2x" transform="translate(-391 -1912)" fill="#56BAF2"/></g></g><use xlink:href="#path2_fill" transform="translate(8.5 18.5)" fill="#9C9C9C"/><use xlink:href="#path3_fill" transform="translate(30 21.5)" fill="#4D4D4D"/><use xlink:href="#path4_fill" transform="translate(8.5 12)" fill="#E0E0E0"/><defs><path id="path0_fill" d="M45 22.5C45 34.926 34.926 45 22.5 45S0 34.926 0 22.5 10.074 0 22.5 0 45 10.074 45 22.5z"/><path id="path1_stroke_2x" d="M43 22.5C43 33.822 33.822 43 22.5 43v4C36.031 47 47 36.031 47 22.5h-4zM22.5 43C11.178 43 2 33.822 2 22.5h-4C-2 36.031 8.969 47 22.5 47v-4zM2 22.5C2 11.178 11.178 2 22.5 2v-4C8.969-2-2 8.969-2 22.5h4zM22.5 2C33.822 2 43 11.178 43 22.5h4C47 8.969 36.031-2 22.5-2v4z"/><path id="path2_fill" d="M0 0l21.5 11.5v5L0 4.5V0z"/><path id="path3_fill" d="M0 8.5L8 0v5l-8 8.5v-5z"/><path id="path4_fill" d="M0 6.5L7 0l22.5 9.5-8 8.5L0 6.5z"/></defs></svg>