<?xml version="1.0" standalone="no"?><svg xmlns="http://www.w3.org/2000/svg" xmlns:xlink="http://www.w3.org/1999/xlink" style="isolation:isolate" viewBox="0 0 45 45" width="45" height="45"><defs><clipPath id="_clipPath_gAfcXEVHkFLOdgHLJQCRM5ZPcEAyZ4ru"><rect width="45" height="45"/></clipPath></defs><g clip-path="url(#_clipPath_gAfcXEVHkFLOdgHLJQCRM5ZPcEAyZ4ru)"><path d=" M 44 22.5 C 44 34.374 34.374 44 22.5 44 C 10.626 44 1 34.374 1 22.5 C 1 10.626 10.626 1 22.5 1 C 34.374 1 44 10.626 44 22.5 Z " fill="rgb(0,0,0)" vector-effect="non-scaling-stroke" stroke-width="2.081" stroke="rgb(181,208,84)" stroke-linejoin="miter" stroke-linecap="butt" stroke-miterlimit="4"/><g id="ggk"><path d=" M 21.067 30.788 C 19.446 30.594 18.135 29.911 17.133 28.741 C 15.938 27.33 15.341 25.396 15.341 22.941 L 15.341 21.944 C 15.341 20.377 15.618 18.995 16.169 17.801 C 16.722 16.606 17.51 15.692 18.533 15.057 C 19.289 14.586 20.133 14.287 21.067 14.162 L 21.067 10.556 L 23.933 10.556 L 23.933 14.274 C 25 14.502 25.91 14.946 26.662 15.606 C 27.812 16.614 28.476 18.028 28.656 19.85 L 25.296 19.85 C 25.214 18.797 24.919 18.036 24.411 17.566 C 23.911 17.088 23.146 16.849 22.116 16.849 C 20.996 16.849 20.157 17.252 19.596 18.059 C 19.044 18.856 18.76 20.1 18.746 21.787 L 18.746 23.019 C 18.746 24.781 19.01 26.068 19.541 26.882 C 20.078 27.696 20.921 28.102 22.071 28.102 C 23.109 28.102 23.881 27.867 24.389 27.397 C 24.904 26.919 25.198 26.184 25.274 25.191 L 28.633 25.191 C 28.506 26.945 27.857 28.327 26.684 29.334 C 25.926 29.991 25.009 30.433 23.933 30.662 L 23.933 34.444 L 21.067 34.444 L 21.067 30.788 Z " fill="rgb(181,208,84)"/></g></g></svg>