<svg width="45" height="45" xmlns="http://www.w3.org/2000/svg" xmlns:xlink="http://www.w3.org/1999/xlink"><g transform="translate(205 1912)"><use xlink:href="#path0_fill" transform="translate(-205 -1912)"/><mask id="a"><use xlink:href="#path0_fill" fill="#fff" transform="translate(-205 -1912)"/></mask><g mask="url(#a)"><use xlink:href="#path1_stroke_2x" transform="translate(-205 -1912)" fill="#B5D054"/></g></g><g transform="translate(15.008 10)" fill="#B5D054"><use xlink:href="#path2_fill"/><use xlink:href="#path3_fill"/><use xlink:href="#path4_fill"/></g><defs><path id="path0_fill" d="M45 22.5C45 34.926 34.926 45 22.5 45S0 34.926 0 22.5 10.074 0 22.5 0 45 10.074 45 22.5z"/><path id="path1_stroke_2x" d="M43 22.5C43 33.822 33.822 43 22.5 43v4C36.031 47 47 36.031 47 22.5h-4zM22.5 43C11.178 43 2 33.822 2 22.5h-4C-2 36.031 8.969 47 22.5 47v-4zM2 22.5C2 11.178 11.178 2 22.5 2v-4C8.969-2-2 8.969-2 22.5h4zM22.5 2C33.822 2 43 11.178 43 22.5h4C47 8.969 36.031-2 22.5-2v4z"/><path id="path2_fill" d="M13.91 15.316c-.133 1.836-.812 3.282-2.039 4.336-1.219 1.055-2.828 1.582-4.828 1.582-2.188 0-3.91-.734-5.168-2.203C.625 17.555 0 15.531 0 12.961v-1.043c0-1.64.29-3.086.867-4.336.578-1.25 1.403-2.207 2.473-2.871 1.078-.672 2.328-1.008 3.75-1.008 1.969 0 3.555.527 4.758 1.582 1.203 1.055 1.898 2.535 2.086 4.442h-3.516c-.086-1.102-.395-1.899-.926-2.391-.523-.5-1.324-.75-2.402-.75-1.172 0-2.05.422-2.637 1.266-.578.835-.875 2.136-.89 3.902v1.289c0 1.844.277 3.191.832 4.043.562.852 1.445 1.277 2.648 1.277 1.086 0 1.894-.246 2.426-.738.539-.5.847-1.27.926-2.309h3.515z"/><path id="path3_fill" d="M5.992 0h3v5h-3V0z"/><path id="path4_fill" d="M5.992 20h3v5h-3v-5z"/></defs></svg>