<svg xmlns="http://www.w3.org/2000/svg" xmlns:xlink="http://www.w3.org/1999/xlink" style="isolation:isolate" viewBox="0 0 45 45" width="45" height="45">
<style>/* <![CDATA[ */
    @keyframes creditAnimation {0%,45%{x: -20} 50%,100%{x: 54}}
    .creditBright{animation:creditAnimation 7s linear infinite}
    /* ]]> */</style>
<defs><clipPath id="_clipPath_9QkffKs92gqxxZSa3Q0EYBAheeAAV8vm"><rect width="45" height="45"/></clipPath></defs><g clip-path="url(#_clipPath_9QkffKs92gqxxZSa3Q0EYBAheeAAV8vm)"><clipPath id="_clipPath_49pUZtB6aSNw8BEypqzGuoFHD99eFFel"><rect x="0" y="0" width="45" height="45" fill="rgb(255,255,255)"/></clipPath><g clip-path="url(#_clipPath_49pUZtB6aSNw8BEypqzGuoFHD99eFFel)"><g id="Group"><g id="ggk"><path d=" M 45 22.5 C 45 34.926 34.926 45 22.5 45 C 10.074 45 0 34.926 0 22.5 C 0 10.074 10.074 0 22.5 0 C 34.926 0 45 10.074 45 22.5 Z " fill="rgb(181,208,84)"/><path d=" M 43 22.5 C 43 33.821 33.821 43 22.5 43 C 11.179 43 2 33.821 2 22.5 C 2 11.179 11.179 2 22.5 2 C 33.821 2 43 11.179 43 22.5 Z " fill="rgb(0,0,0)"/><path d=" M 21.067 30.788 C 19.446 30.594 18.135 29.911 17.133 28.741 C 15.938 27.33 15.341 25.396 15.341 22.941 L 15.341 21.944 C 15.341 20.377 15.618 18.995 16.169 17.801 C 16.722 16.606 17.51 15.692 18.533 15.057 C 19.289 14.586 20.133 14.287 21.067 14.162 L 21.067 10.556 L 23.933 10.556 L 23.933 14.274 C 25 14.502 25.91 14.946 26.662 15.606 C 27.812 16.614 28.476 18.028 28.656 19.85 L 25.296 19.85 C 25.214 18.797 24.919 18.036 24.411 17.566 C 23.911 17.088 23.146 16.849 22.116 16.849 C 20.996 16.849 20.157 17.252 19.596 18.059 C 19.044 18.856 18.76 20.1 18.746 21.787 L 18.746 23.019 C 18.746 24.781 19.01 26.068 19.541 26.882 C 20.078 27.696 20.921 28.102 22.071 28.102 C 23.109 28.102 23.881 27.867 24.389 27.397 C 24.904 26.919 25.198 26.184 25.274 25.191 L 28.633 25.191 C 28.506 26.945 27.857 28.327 26.684 29.334 C 25.926 29.991 25.009 30.433 23.933 30.662 L 23.933 34.444 L 21.067 34.444 L 21.067 30.788 L 21.067 30.788 Z " fill="rgb(181,208,84)"/></g></g><clipPath id="_clipPath_oAtRQ7a8YRWSMTyCDaQSVfMHSFtOtPS5"><path d=" M 0 22.5 C 0 10.082 10.082 0 22.5 0 C 34.918 0 45 10.082 45 22.5 C 45 34.918 34.918 45 22.5 45 C 10.082 45 0 34.918 0 22.5 Z " fill="rgb(255,255,255)"/></clipPath><g clip-path="url(#_clipPath_oAtRQ7a8YRWSMTyCDaQSVfMHSFtOtPS5)"><linearGradient id="_lgradient_0" x1="54.341497157227046%" y1="2.178777309665114%" x2="51.02869702132647%" y2="95.08313452508013%"><stop offset="0%" stop-opacity="0.5" style="stop-color:rgb(225,255,118)"/><stop offset="48.26086956521739%" stop-opacity="0.7" style="stop-color:rgb(236,255,165)"/><stop offset="100%" stop-opacity="0.5" style="stop-color:rgb(224,255,112)"/></linearGradient><rect  class="creditBright" x="-6.49" y="-1.469" width="5.981" height="47.938" transform="matrix(0.973,0.231,-0.233,0.972,5.153,1.431)" fill="url(#_lgradient_0)"/></g></g></g></svg>