<svg xmlns="http://www.w3.org/2000/svg" xmlns:xlink="http://www.w3.org/1999/xlink" style="isolation:isolate" viewBox="0 0 64 64" width="64" height="64"><defs><clipPath id="_clipPath_zQFqp2j7LSNAit1HmUueqargmI35jlPz"><rect width="64" height="64"/></clipPath></defs><g clip-path="url(#_clipPath_zQFqp2j7LSNAit1HmUueqargmI35jlPz)"><linearGradient id="_lgradient_2" x1="100%" y1="1.5308084989341915e-15%" x2="100%" y2="100%"><stop offset="0%" stop-opacity="1" style="stop-color:rgb(214,95,82)"/><stop offset="100%" stop-opacity="1" style="stop-color:rgb(156,70,61)"/></linearGradient><path d=" M 0 32 C 0 14.339 14.339 0 32 0 C 49.661 0 64 14.339 64 32 C 64 49.661 49.661 64 32 64 C 14.339 64 0 49.661 0 32 Z " fill="url(#_lgradient_2)"/><path d=" M 2 32 C 2 15.443 15.443 2 32 2 C 48.557 2 62 15.443 62 32 C 62 48.557 48.557 62 32 62 C 15.443 62 2 48.557 2 32 Z " fill="rgb(0,0,0)"/><path d=" M 32 18.921 L 32 36.752 L 10.667 43.079 L 32 18.921 Z " fill="rgb(252,204,129)"/><path d=" M 32 18.921 L 32 36.752 L 53.333 43.079 L 32 18.921 Z " fill="rgb(214,122,82)"/></g></svg>